<?xml version="1.0" encoding="UTF-8"?>
<svg version="1.1" xmlns="http://www.w3.org/2000/svg" width="1693" height="929">
<path d="M0 0 C558.69 0 1117.38 0 1693 0 C1693 306.57 1693 613.14 1693 929 C1134.31 929 575.62 929 0 929 C0 622.43 0 315.86 0 0 Z " fill="#FDFDFD" transform="translate(0,0)"/>
<path d="M0 0 C0 3.74149481 -0.81102932 4.19613662 -3.25 6.9375 C-23.69497855 31.86951809 -36.32946421 65.16759478 -40 97 C-40.19335938 98.66675781 -40.19335938 98.66675781 -40.390625 100.3671875 C-45.20258686 153.17213736 -30.3464915 203.73639147 3 245 C6.39522758 249.04558446 9.89040209 253.02254693 13.74609375 256.63671875 C15 258 15 258 15 260 C18.33210645 258.14021966 21.6109786 256.24736395 24.83203125 254.19921875 C46.16098833 240.65493651 67.26189268 233.39219204 92.61376953 238.54199219 C101.22002863 240.4667891 109.23683134 242.73972452 117 247 C120.09930642 248.6757963 123.20451316 250.34036296 126.3125 252 C127.13089355 252.43852295 127.94928711 252.8770459 128.79248047 253.32885742 C135.6735204 256.95804886 142.57150995 259.66338452 150 262 C150.87011719 262.33 151.74023438 262.66 152.63671875 263 C163.85436906 266.33532925 175.22777751 266.3564263 186.83789062 266.47851562 C188.07603516 266.50494141 189.31417969 266.53136719 190.58984375 266.55859375 C191.70222412 266.57204834 192.81460449 266.58550293 193.96069336 266.59936523 C198.15325284 267.15201927 200.75613133 268.84191538 203.8125 271.6875 C205.60935903 275.18664652 205.94741265 278.23761306 205 282 C201.64157417 287.46858719 196.93239656 291.56173059 191 294 C190.16339844 294.37125 189.32679688 294.7425 188.46484375 295.125 C170.89559539 301.52189447 148.89286404 299.27872836 131 295 C129.8140625 294.73703125 128.628125 294.4740625 127.40625 294.203125 C124.26338076 293.49670026 121.13122225 292.75610687 118 292 C112.3372314 290.65673861 106.78900552 289.63152787 101 289 C101 289.66 101 290.32 101 291 C101.71929688 291.26167969 102.43859375 291.52335937 103.1796875 291.79296875 C106.0953906 293.04082506 108.49662895 294.54325322 111.125 296.3125 C132.89117784 310.384451 160.403834 315.24398216 185.84765625 310.68359375 C191.66562763 309.42195188 197.34222266 307.84623683 203 306 C203.70366699 305.7721582 204.40733398 305.54431641 205.13232422 305.30957031 C231.19893654 296.70218731 253.45602475 282.31165616 274.46484375 264.890625 C278.79355291 261.31639768 283.27740894 258.0359514 288 255 C289.485 254.0409375 289.485 254.0409375 291 253.0625 C295.90842366 251.32409995 301.10125084 250.71103051 305.9765625 252.87890625 C307.625 254.0625 307.625 254.0625 310 257 C310.78084183 263.12774918 309.07840003 266.52168825 305.8125 271.4375 C305.3697876 272.12344238 304.9270752 272.80938477 304.47094727 273.51611328 C296.77873852 285.16117055 287.53535441 295.83656835 278 306 C277.46761719 306.58523438 276.93523437 307.17046875 276.38671875 307.7734375 C262.11539618 322.85925242 243.3564147 333.72619804 225 343 C224.30575928 343.35989014 223.61151855 343.71978027 222.89624023 344.09057617 C219.29210469 345.9405724 215.87119523 347.51833048 211.9375 348.5625 C209.04413814 349.33759361 206.49164435 350.22763104 203.74609375 351.45703125 C199.65865754 353.25147495 195.47587367 354.18731171 191.125 355.125 C186.16733838 355.81683511 186.16733838 355.81683511 182 358 C169.05174567 361.112096 155.93001187 361.32729863 142.6875 361.375 C141.8780191 361.38258331 141.06853821 361.39016663 140.23452759 361.39797974 C130.58598837 361.47101469 121.60367207 360.88487146 112.18579102 358.72241211 C109.20880306 358.04734832 106.27561974 357.57743266 103.25 357.1875 C91.24979768 355.25250803 79.08786933 350.92600788 68 346 C66.90042969 345.52175781 65.80085937 345.04351562 64.66796875 344.55078125 C48.43943421 337.34002287 33.8683344 328.05505419 20 317 C19.4332959 316.55043945 18.8665918 316.10087891 18.28271484 315.63769531 C4.76881212 304.82176249 -7.46108959 292.629208 -17.74560547 278.69433594 C-18.95934112 277.05491876 -20.19795653 275.43724712 -21.44140625 273.8203125 C-43.2878444 244.91403925 -57.57475168 209.05359335 -61.75024414 173.08984375 C-61.97850172 171.17988782 -62.26183441 169.27672104 -62.55078125 167.375 C-63.34261645 160.95163284 -63.28948436 154.46314893 -63.3125 148 C-63.31511841 147.29602081 -63.31773682 146.59204163 -63.32043457 145.86672974 C-63.32568523 132.60937509 -61.90582693 119.95653919 -59 107 C-58.84515137 106.29713867 -58.69030273 105.59427734 -58.53076172 104.87011719 C-57.54159696 100.5169159 -56.3133833 96.2652013 -55 92 C-54.78037598 91.25314941 -54.56075195 90.50629883 -54.33447266 89.73681641 C-46.44498173 63.08775058 -33.65449819 36.81182111 -15 16 C-14.54173828 15.48824219 -14.08347656 14.97648438 -13.61132812 14.44921875 C-9.18561411 9.52392214 -4.71629772 4.65033551 0 0 Z " fill="#03205A" transform="translate(684,149)"/>
<path d="M0 0 C0.82081055 0.16628906 1.64162109 0.33257812 2.48730469 0.50390625 C38.60079192 8.10674567 72.53343317 25.59496748 99.51171875 50.69921875 C101.67179288 52.69652435 103.87547945 54.60543338 106.125 56.5 C110.8458026 60.62831321 114.93734675 65.23135645 119 70 C119.6808667 70.79639893 119.6808667 70.79639893 120.37548828 71.60888672 C141.77301311 96.84940991 157.29884815 127.09577654 166 159 C166.26167969 159.87011719 166.52335937 160.74023438 166.79296875 161.63671875 C178.24546157 202.38899015 173.73731178 249.18530858 158 288 C157.72430176 288.68900391 157.44860352 289.37800781 157.16455078 290.08789062 C147.40764836 314.23228754 133.16689926 334.90399433 115.625 354.0625 C115.11275879 354.62332275 114.60051758 355.18414551 114.07275391 355.76196289 C111.81979807 358.19026494 109.77006105 360.15329263 107 362 C108.27453219 359.31698681 109.66728823 356.94433632 111.43359375 354.55859375 C130.40749401 328.56454212 141.92409846 301.69967117 148 270 C148.19360107 269.04883301 148.38720215 268.09766602 148.58666992 267.11767578 C150.12743364 258.9536113 150.35642 250.91576287 150.3125 242.625 C150.31026428 241.57768707 150.31026428 241.57768707 150.3079834 240.50921631 C150.26080315 228.14975192 149.2816704 216.15566731 147 204 C146.79914795 202.87078125 146.79914795 202.87078125 146.59423828 201.71875 C137.11505009 149.50853042 106.37479161 98.90880819 63 68 C62.33452148 67.52256348 61.66904297 67.04512695 60.98339844 66.55322266 C42.99865369 53.78463484 23.85520294 44.12577809 3 37 C2.07960938 36.68015137 1.15921875 36.36030273 0.2109375 36.03076172 C-47.45504088 19.69071989 -100.17025029 24.83591913 -145.41015625 46.1875 C-157.55333598 52.14032759 -168.91046706 59.51716603 -179.06640625 68.453125 C-181 70 -181 70 -183 70 C-183.66 71.32 -184.32 72.64 -185 74 C-185.66 74 -186.32 74 -187 74 C-179.56784463 57.63424373 -161.41752854 43.13543623 -147 33 C-146.13689209 32.38632568 -146.13689209 32.38632568 -145.25634766 31.76025391 C-131.20051482 21.82390532 -116.23890585 13.76423713 -100 8 C-98.93773193 7.61932373 -98.93773193 7.61932373 -97.85400391 7.23095703 C-85.14111168 2.75138703 -72.31190962 0.02892718 -59 -2 C-57.75992188 -2.19464844 -56.51984375 -2.38929687 -55.2421875 -2.58984375 C-37.14806451 -4.72458197 -17.80556855 -3.63116372 0 0 Z " fill="#FD7906" transform="translate(875,96)"/>
<path d="M0 0 C0 3 0 3 -1.43139648 4.51000977 C-2.09212158 5.04424561 -2.75284668 5.57848145 -3.43359375 6.12890625 C-8.23624493 10.1556063 -12.64413635 14.49665104 -17.0625 18.9375 C-18.2081543 20.07735352 -18.2081543 20.07735352 -19.37695312 21.24023438 C-24.12474559 25.99614967 -28.65514779 30.87389063 -33 36 C-33.79216919 36.93211304 -33.79216919 36.93211304 -34.6003418 37.88305664 C-42.4271093 47.17741886 -49.51861863 56.72675536 -56 67 C-56.42990234 67.67192383 -56.85980469 68.34384766 -57.30273438 69.03613281 C-69.85013824 88.69983799 -80.18364249 109.4182466 -89 131 C-89.26893066 131.65194336 -89.53786133 132.30388672 -89.81494141 132.97558594 C-95.75796694 147.6128089 -99.04671431 163.52452746 -102 179 C-111.07315328 179.51100363 -119.36250243 179.37728479 -128.125 176.75 C-128.81005615 176.54544189 -129.4951123 176.34088379 -130.20092773 176.13012695 C-134.85851447 174.62207004 -138.79951273 172.50492473 -143 170 C-144.03125 169.566875 -145.0625 169.13375 -146.125 168.6875 C-147.42007394 168.13288975 -148.71105938 167.56871883 -150 167 C-151.05316406 166.54109375 -152.10632813 166.0821875 -153.19140625 165.609375 C-154.34511719 165.05765625 -155.49882813 164.5059375 -156.6875 163.9375 C-157.78449219 163.43089844 -158.88148438 162.92429687 -160.01171875 162.40234375 C-164.28468111 158.96721715 -165.26832685 155.07966614 -167 150 C-167.65563287 148.34868648 -168.32482326 146.70268795 -169.0078125 145.0625 C-169.3488501 144.24031982 -169.6898877 143.41813965 -170.04125977 142.57104492 C-182.80224227 112.29713037 -201.60634735 84.03113318 -224 60 C-225.17227373 58.67159374 -226.33916106 57.33841019 -227.5 56 C-230.25744442 52.84217723 -233.02645145 49.69513833 -235.8125 46.5625 C-236.93591797 45.29599609 -236.93591797 45.29599609 -238.08203125 44.00390625 C-239.84418571 41.93751766 -239.84418571 41.93751766 -242 41 C-242 40.34 -242 39.68 -242 39 C-242.53496094 38.79375 -243.06992187 38.5875 -243.62109375 38.375 C-246.97947727 36.43386536 -249.388119 33.78266882 -252.0625 31 C-256.24121866 26.67183338 -256.24121866 26.67183338 -261 23 C-261 22.34 -261 21.68 -261 21 C-224.64446083 32.79215972 -190.09592437 52.59651154 -160 76 C-159.43297363 76.43699219 -158.86594727 76.87398438 -158.28173828 77.32421875 C-151.55853036 82.50680493 -144.97071855 87.7291547 -138.76953125 93.5390625 C-136.95639328 95.21460953 -136.95639328 95.21460953 -134 96 C-133.76297363 95.43772705 -133.52594727 94.8754541 -133.28173828 94.29614258 C-131.70610699 91.47351167 -129.78425642 89.54227994 -127.4921875 87.26171875 C-126.58726562 86.35873047 -125.68234375 85.45574219 -124.75 84.52539062 C-124.27691406 84.0585083 -123.80382812 83.59162598 -123.31640625 83.1105957 C-121.89541817 81.70765879 -120.48279557 80.29626507 -119.0703125 78.88476562 C-113.87175398 73.71924879 -108.5715709 68.75835281 -103 64 C-101.93980547 63.06300607 -100.88113906 62.12427943 -99.82421875 61.18359375 C-70.08322544 35.00736468 -35.70007712 16.61290718 0 0 Z " fill="#052C6A" transform="translate(968,222)"/>
<path d="M0 0 C0.33 0 0.66 0 1 0 C1.00257813 0.79921875 1.00515625 1.5984375 1.0078125 2.421875 C1.39650721 13.46080474 5.00848831 23.19011358 13 31 C18.90014525 35.70557359 24.97123528 39.2665915 32 42 C30.63875 40.948125 30.63875 40.948125 29.25 39.875 C24.31156899 35.76547821 21.2967995 31.14607465 20.6875 24.6875 C21.05553465 20.34469118 22.28514551 18.35364378 25 15 C25.66 14.67 26.32 14.34 27 14 C27.06316406 14.70125 27.12632812 15.4025 27.19140625 16.125 C28.15694785 23.60540653 29.98924101 28.2937463 36 33 C48.58301015 40.89220093 63.42046209 44.99399283 77.5078125 49.3125 C95.87822429 54.97285571 114.48497131 60.76382847 129 74 C129.60585938 74.49242187 130.21171875 74.98484375 130.8359375 75.4921875 C137.0510678 80.9473892 142.67833528 90.71104099 144 99 C144.87133559 114.90694037 142.62048666 127.26188475 132.3125 139.75 C118.08262456 154.84066186 96.22869634 160.52969035 76.13381958 161.28814697 C59.89936293 161.75194102 43.97577297 161.09031055 28 158 C26.26955016 157.68349037 24.53908104 157.36708608 22.80859375 157.05078125 C12.74014215 155.15900144 2.85243886 152.80645228 -7 150 C-6.48510968 143.51238194 -5.15197814 138.11996906 -3 132 C-2.70262939 131.14269287 -2.40525879 130.28538574 -2.09887695 129.40209961 C-1.1755061 126.74530205 -0.24505206 124.09108759 0.6875 121.4375 C1.00783203 120.52419922 1.32816406 119.61089844 1.65820312 118.66992188 C2.43818322 116.44639654 3.21879162 114.22309402 4 112 C4.99 112 5.98 112 7 112 C7.3403125 112.68964844 7.680625 113.37929688 8.03125 114.08984375 C16.68086957 130.85998383 29.26786665 139.13487904 46.9453125 144.97265625 C63.18333237 149.43707348 79.9779533 148.22207435 95 140.625 C101.24096977 136.875846 104.71615661 131.97173246 107 125 C107.778105 119.60655987 107.11476305 114.57699908 104 110 C91.97627915 96.20096466 71.1177747 92.10745855 54.42797852 86.53710938 C7.35769866 70.78196105 7.35769866 70.78196105 -3.56640625 50.0234375 C-6.92191846 42.77706071 -8.18175022 37.29819925 -8.1875 29.375 C-8.20586914 28.07755859 -8.20586914 28.07755859 -8.22460938 26.75390625 C-8.24289029 18.62499345 -7.38074814 11.41350876 -2.9375 4.4375 C-2.14666016 3.16712891 -2.14666016 3.16712891 -1.33984375 1.87109375 C-0.89769531 1.25363281 -0.45554687 0.63617187 0 0 Z " fill="#04225B" transform="translate(373,534)"/>
<path d="M0 0 C0 23.1 0 46.2 0 70 C0.66 70 1.32 70 2 70 C2.26554688 69.41089844 2.53109375 68.82179688 2.8046875 68.21484375 C7.7058665 59.13324736 17.89042823 53.68167945 27.39453125 50.73046875 C39.81394365 48.21429311 53.22138667 48.81059825 64.29296875 55.35546875 C66.34261072 56.78983358 68.16540841 58.30115174 70 60 C70.55429687 60.50144531 71.10859375 61.00289062 71.6796875 61.51953125 C80.41062558 70.4459381 80.56973708 82.63906263 80.4858551 94.34545517 C80.46836246 96.86040514 80.47622036 99.37422918 80.4901123 101.88919067 C80.51524655 107.21787402 80.50997415 112.54628168 80.5 117.875 C80.48844156 124.07687007 80.48965358 130.27818418 80.52406311 136.47998428 C80.53112844 138.94969592 80.51452789 141.4185123 80.49694824 143.88815308 C80.50265628 145.40574622 80.50947364 146.92333573 80.51757812 148.44091797 C80.51439575 149.75929657 80.51121338 151.07767517 80.50793457 152.43600464 C81.0853381 156.61809785 82.35421309 158.74688576 85 162 C86.485 162.99 86.485 162.99 88 164 C88 164.66 88 165.32 88 166 C71.83 166 55.66 166 39 166 C39 165.34 39 164.68 39 164 C39.598125 163.79375 40.19625 163.5875 40.8125 163.375 C43.91333356 161.42590462 44.61211539 159.36693831 46 156 C46.45649021 152.49854588 46.45649021 152.49854588 46.40405273 148.72875977 C46.41434761 147.67629562 46.41434761 147.67629562 46.42485046 146.60256958 C46.44305153 144.29863869 46.43929079 141.99539314 46.43359375 139.69140625 C46.43815885 138.08007081 46.4434654 136.46873731 46.44947815 134.85740662 C46.45839613 131.48583042 46.45600128 128.11449126 46.44604492 124.74291992 C46.43455781 120.43433773 46.45476883 116.12657545 46.48396206 111.81810093 C46.50235834 108.49194694 46.50202481 105.16598819 46.49632454 101.83979607 C46.49617174 100.25185941 46.50218198 98.66390918 46.51461601 97.07602119 C46.52958982 94.85037776 46.51880446 92.62623313 46.50170898 90.40063477 C46.50154282 89.13743912 46.50137665 87.87424347 46.50120544 86.57276917 C45.7967764 81.55135051 43.86452875 77.77481293 40.1328125 74.22265625 C32.67042488 69.91073188 24.62595089 69.60986679 16.3125 71.6640625 C9.6580441 74.24940854 5.91861795 78.64581077 2.4465332 84.71582031 C-0.05202902 90.67754858 0.5485902 97.27094069 0.56640625 103.62109375 C0.561838 105.04924262 0.55653052 106.4773893 0.55052185 107.90553284 C0.54161675 110.89031945 0.54398383 113.87483812 0.55395508 116.85961914 C0.56544093 120.66702648 0.54522713 124.47350577 0.51603794 128.28079128 C0.49760949 131.22782677 0.4979815 134.17464256 0.50367546 137.12172127 C0.50382787 138.52462122 0.49785053 139.92753683 0.48538399 141.33038139 C0.42519712 149.2124793 0.42254359 155.39293095 5 162 C7.05760318 163.20404879 7.05760318 163.20404879 9 164 C9 164.66 9 165.32 9 166 C-7.17 166 -23.34 166 -40 166 C-40 165.34 -40 164.68 -40 164 C-39.07860859 163.60699754 -39.07860859 163.60699754 -38.13860321 163.20605564 C-34.48977038 161.14831282 -33.19272614 157.8391083 -32 154 C-31.43944511 149.57847818 -31.45308396 145.20260119 -31.48242188 140.75024414 C-31.4754126 139.43704697 -31.46840332 138.12384979 -31.46118164 136.77085876 C-31.44303436 133.1880458 -31.44998021 129.6056965 -31.46269798 126.02287602 C-31.4728727 122.26079829 -31.46341976 118.49875848 -31.45715332 114.73667908 C-31.44988896 108.4195142 -31.45943169 102.10253676 -31.47851562 95.78540039 C-31.50027276 88.49961404 -31.49323681 81.2142757 -31.47121 73.92850024 C-31.45301001 67.65559993 -31.45052033 61.38283387 -31.46096468 55.10991567 C-31.46717568 51.3711005 -31.46810196 47.63249531 -31.45481873 43.89369392 C-31.44103097 39.72191323 -31.46018459 35.55089461 -31.48242188 31.37915039 C-31.47432495 30.15237579 -31.46622803 28.9256012 -31.45788574 27.66165161 C-31.52637572 20.70817578 -32.1963218 14.96274871 -36 9 C-38.08555036 7.09667779 -38.08555036 7.09667779 -40 6 C-40 5.34 -40 4.68 -40 4 C-39.35562988 3.9498877 -38.71125977 3.89977539 -38.04736328 3.84814453 C-35.07271909 3.61326215 -32.09889485 3.36918009 -29.125 3.125 C-28.11179687 3.04636719 -27.09859375 2.96773437 -26.0546875 2.88671875 C-20.40107505 2.41558438 -14.96748478 1.71194908 -9.44482422 0.39794922 C-7 0 -7 0 0 0 Z " fill="#032461" transform="translate(706,525)"/>
<path d="M0 0 C0 33.99 0 67.98 0 103 C0.66 103 1.32 103 2 103 C2.495 101.515 2.495 101.515 3 100 C4.57299805 98.43066406 4.57299805 98.43066406 6.57421875 96.765625 C10.76734254 93.20646493 14.80545619 89.51653211 18.8125 85.75 C19.50029541 85.10393799 20.18809082 84.45787598 20.89672852 83.79223633 C32.83610812 74.18478929 32.83610812 74.18478929 39.1875 61.625 C39.23205131 57.79674455 39.23205131 57.79674455 37 54 C51.19 54 65.38 54 80 54 C77.12738674 56.87261326 74.37568403 58.8269208 71 61.0625 C65.4621779 64.80698994 60.56355188 68.94485766 55.68359375 73.52734375 C53.01349129 75.98756916 50.2632565 78.28366411 47.4375 80.5625 C42.11708573 84.85562967 37.03634471 89.37879867 32 94 C32.60426603 97.16617946 33.61141881 99.12176905 35.58984375 101.65234375 C36.12174316 102.33965576 36.65364258 103.02696777 37.20166016 103.73510742 C38.06090088 104.82529175 38.06090088 104.82529175 38.9375 105.9375 C39.5257959 106.69458252 40.1140918 107.45166504 40.72021484 108.23168945 C41.91599759 109.77030652 43.11422735 111.30702504 44.31494141 112.84179688 C46.60518561 115.77511457 48.8642389 118.73140014 51.125 121.6875 C52.74814962 123.79313675 54.37263001 125.89763461 56 128 C56.43521973 128.56283691 56.87043945 129.12567383 57.31884766 129.70556641 C72.2702884 149.94845843 72.2702884 149.94845843 92 165 C92 165.33 92 165.66 92 166 C75.17 166 58.34 166 41 166 C40.01 161.545 40.01 161.545 39 157 C37.74796976 154.53719303 37.74796976 154.53719303 36.09375 152.640625 C35.51987549 151.92422852 34.94600098 151.20783203 34.35473633 150.46972656 C33.74267334 149.7372168 33.13061035 149.00470703 32.5 148.25 C31.22230149 146.66695293 29.94495959 145.08361798 28.66796875 143.5 C28.04067871 142.73300781 27.41338867 141.96601562 26.76708984 141.17578125 C24.38767303 138.24605444 22.09563924 135.25489675 19.8125 132.25 C14.59762129 125.45590677 9.30343585 118.7250793 4 112 C3.01 112.33 2.02 112.66 1 113 C0.87582916 118.83488314 0.78539176 124.66898684 0.7253418 130.50488281 C0.70029317 132.48744109 0.66624416 134.46990789 0.62280273 136.45214844 C0.56172381 139.31207926 0.53369371 142.17078292 0.51171875 145.03125 C0.48591232 145.90865845 0.4601059 146.78606689 0.43351746 147.69006348 C0.43067195 154.02119648 2.01576283 158.07624548 6 163 C6.99 163.99 7.98 164.98 9 166 C-7.5 166 -24 166 -41 166 C-39.35 164.35 -37.7 162.7 -36 161 C-31.80184967 155.18161025 -32.57889994 148.53146438 -32.61181641 141.65429688 C-32.60774771 140.29370198 -32.60240415 138.93311039 -32.59588623 137.57252502 C-32.58224216 133.8886278 -32.58749912 130.20498341 -32.59702349 126.52108192 C-32.60463522 122.66016601 -32.59757027 118.79927129 -32.59286499 114.93835449 C-32.58741184 108.45544562 -32.59458745 101.97263938 -32.60888672 95.48974609 C-32.62521244 88.00178982 -32.61992362 80.51407863 -32.6034075 73.02612829 C-32.58978005 66.58942748 -32.58787912 60.15280031 -32.59572351 53.71608973 C-32.60039312 49.87509299 -32.60104455 46.03421133 -32.59111404 42.19322205 C-32.58242825 38.58159386 -32.58849538 34.97028071 -32.60579681 31.35868645 C-32.61163572 29.40612594 -32.60275986 27.45353869 -32.59341431 25.50099182 C-32.64265339 18.69588681 -32.72184833 13.3995647 -37.6875 8.25 C-38.120625 7.8375 -38.55375 7.425 -39 7 C-39 6.34 -39 5.68 -39 5 C-37.16888672 4.83564453 -37.16888672 4.83564453 -35.30078125 4.66796875 C-26.63773496 3.84753769 -18.28288584 2.8853283 -9.859375 0.5859375 C-7 0 -7 0 0 0 Z " fill="#04225C" transform="translate(1235,525)"/>
<path d="M0 0 C1.051875 0.721875 2.10375 1.44375 3.1875 2.1875 C9.41196599 8.41196599 12.11277685 16.1822079 12.15771484 24.83886719 C12.16279556 25.5303183 12.16787628 26.22176941 12.17311096 26.93417358 C12.18380582 28.43521613 12.19242947 29.93627454 12.19923019 31.43733978 C12.21103803 33.81713626 12.23049701 36.19675281 12.25234985 38.57647705 C12.31389272 45.34258999 12.36793774 52.10868513 12.40136719 58.875 C12.42237241 63.01536185 12.45772444 67.15539625 12.50212479 71.29557037 C12.51624113 72.86950055 12.52499733 74.44348868 12.52817917 76.01747894 C12.53311629 78.22651655 12.55634514 80.43469352 12.58349609 82.64355469 C12.59158295 83.89803406 12.5996698 85.15251343 12.60800171 86.44500732 C13.12977568 91.17692243 14.47898827 95.09873533 17.5 98.875 C19.12517349 100.21740659 19.12517349 100.21740659 22 101 C22 102.32 22 103.64 22 105 C14.72885471 107.43822836 7.68777296 108.36525975 0.0625 108.5 C-0.75387939 108.53029297 -1.57025879 108.56058594 -2.41137695 108.59179688 C-6.70606259 108.59534217 -8.46425732 108.41810606 -11.953125 105.6953125 C-14.97311439 101.71860891 -17 98.1302229 -17 93 C-17.66 93 -18.32 93 -19 93 C-19.23589844 93.5878125 -19.47179687 94.175625 -19.71484375 94.78125 C-24.20438808 102.53219583 -35.49509735 106.69197271 -43.7265625 109.08203125 C-57.15809896 112.31427759 -71.08813168 110.40421858 -82.875 103.25 C-89.87199597 98.19238878 -94.40611096 91.5181611 -96 83 C-97.01354793 74.03573165 -95.89954331 67.58500729 -91 60 C-90.443125 59.113125 -89.88625 58.22625 -89.3125 57.3125 C-77.99026344 45.99026344 -63.32837546 42.62303751 -48 40 C-46.90816406 39.79375 -45.81632813 39.5875 -44.69140625 39.375 C-36.38766384 37.91142729 -28.40502063 37.79074637 -20 38 C-20.08147098 34.79067345 -20.19425746 31.58316561 -20.3125 28.375 C-20.33505859 27.47136719 -20.35761719 26.56773437 -20.38085938 25.63671875 C-20.62870939 19.46300029 -21.39044278 14.88807145 -25.68359375 10.13671875 C-26.26238281 9.65847656 -26.84117187 9.18023438 -27.4375 8.6875 C-28.01371094 8.19636719 -28.58992187 7.70523438 -29.18359375 7.19921875 C-35.51844635 3.0168537 -45.84759025 4.29894381 -53.0078125 5.5078125 C-63.9905331 8.80583064 -72.28244908 18.3091503 -78.6953125 27.41796875 C-79.12585938 27.94003906 -79.55640625 28.46210937 -80 29 C-80.66 29 -81.32 29 -82 29 C-82 19.76 -82 10.52 -82 1 C-77.9365415 -1.03172925 -75.01932719 -2.43825594 -70.8125 -3.5703125 C-69.39324219 -3.95509766 -69.39324219 -3.95509766 -67.9453125 -4.34765625 C-66.97335937 -4.60417969 -66.00140625 -4.86070312 -65 -5.125 C-64.02804687 -5.38925781 -63.05609375 -5.65351562 -62.0546875 -5.92578125 C-42.01730369 -11.30366219 -17.428274 -12.95128619 0 0 Z " fill="#05245E" transform="translate(629,584)"/>
<path d="M0 0 C6.16246609 5.8752832 8.73103937 12.85399423 9.19804382 21.27961731 C9.25920314 24.67170898 9.28931598 28.05997976 9.28611374 31.45243645 C9.2851386 33.73665919 9.29820536 36.02042395 9.31509399 38.30458069 C9.36107294 44.79343186 9.38596179 51.28223141 9.39257812 57.77124023 C9.39761729 61.75532365 9.42198127 65.73892253 9.45790482 69.72284126 C9.46764083 71.23093304 9.47006893 72.73909197 9.46473312 74.24720573 C9.32004834 86.17618877 9.32004834 86.17618877 14.01171875 96.91796875 C16.61195924 98.78107197 16.61195924 98.78107197 19.01171875 99.91796875 C19.01171875 100.90796875 19.01171875 101.89796875 19.01171875 102.91796875 C11.74057346 105.35619711 4.69949171 106.2832285 -2.92578125 106.41796875 C-3.74216064 106.44826172 -4.55854004 106.47855469 -5.3996582 106.50976562 C-9.69434384 106.51331092 -11.45253857 106.33607481 -14.94140625 103.61328125 C-17.96139564 99.63657766 -19.98828125 96.04819165 -19.98828125 90.91796875 C-20.64828125 90.91796875 -21.30828125 90.91796875 -21.98828125 90.91796875 C-22.48328125 92.40296875 -22.48328125 92.40296875 -22.98828125 93.91796875 C-34.23966685 104.18163729 -45.23188495 107.34216219 -60.05078125 107.54296875 C-61.13883057 107.56617188 -62.22687988 107.589375 -63.34790039 107.61328125 C-74.39678491 107.50664948 -84.09159463 103.98925641 -92.07421875 96.1953125 C-98.27660949 88.81573332 -99.90108238 81.16498945 -99.5234375 71.63671875 C-98.13800096 62.00945168 -93.57589586 55.53814516 -85.94140625 49.734375 C-78.28317331 45.02395395 -70.97915393 42.04418219 -62.17578125 40.23046875 C-60.72739868 39.9197644 -60.72739868 39.9197644 -59.24975586 39.6027832 C-56.49940718 39.02197713 -53.74564615 38.46436877 -50.98828125 37.91796875 C-49.73789062 37.66789063 -48.4875 37.4178125 -47.19921875 37.16015625 C-39.09863225 35.73300577 -31.18811074 35.71382362 -22.98828125 35.91796875 C-23.07583554 32.89583621 -23.18279188 29.87644194 -23.30078125 26.85546875 C-23.32333984 26.00791016 -23.34589844 25.16035156 -23.36914062 24.28710938 C-23.64326282 17.83277774 -24.64272669 12.82969165 -28.80078125 7.66796875 C-36.10345981 1.8258259 -44.09301428 2.01396915 -52.98828125 2.91796875 C-64.48310271 5.06519567 -73.31026781 13.64545685 -79.98828125 22.91796875 C-80.68199542 24.23743185 -81.35579766 25.56808478 -81.98828125 26.91796875 C-83.30828125 26.91796875 -84.62828125 26.91796875 -85.98828125 26.91796875 C-85.98828125 17.67796875 -85.98828125 8.43796875 -85.98828125 -1.08203125 C-59.31636346 -10.78091045 -24.43081132 -19.99659774 0 0 Z " fill="#05235C" transform="translate(908.98828125,586.08203125)"/>
<path d="M0 0 C14.04199302 -0.30292169 28.93118895 1.1702694 40.24609375 10.34765625 C45.81067471 15.8635319 49.68196491 22.52823899 50.2828064 30.42216492 C50.28406525 31.61920547 50.2853241 32.81624603 50.28662109 34.04956055 C50.29024155 34.71551743 50.293862 35.3814743 50.29759216 36.06761169 C50.30445075 37.50474879 50.30699828 38.94191174 50.30564499 40.37906456 C50.3046727 42.6636777 50.31770614 44.9478293 50.33462524 47.2323761 C50.38067154 53.72478644 50.40547092 60.21714859 50.41210938 66.7097168 C50.41716042 70.69150272 50.44159163 74.67280663 50.47743607 78.65442848 C50.48715288 80.16086732 50.48961097 81.66737316 50.48426437 83.17383385 C50.45482609 91.87955366 50.58798304 100.35022373 55.03125 108.1171875 C58.05155024 110.38653995 58.05155024 110.38653995 61.03125 111.1171875 C60.03125 114.1171875 60.03125 114.1171875 58.16015625 115.06640625 C51.96387077 116.84889933 46.06917001 117.42786989 39.65625 117.4921875 C38.8835376 117.50596436 38.1108252 117.51974121 37.31469727 117.53393555 C32.76653935 117.49682994 29.64891558 117.15285204 26.03125 114.1171875 C24.44921875 111.70703125 24.44921875 111.70703125 23.21875 109.0546875 C22.79980469 108.17683594 22.38085938 107.29898438 21.94921875 106.39453125 C21.03125 104.1171875 21.03125 104.1171875 21.03125 102.1171875 C20.37125 102.1171875 19.71125 102.1171875 19.03125 102.1171875 C18.7734375 102.71660156 18.515625 103.31601562 18.25 103.93359375 C14.05256276 111.45400214 3.12880582 115.90278236 -4.73828125 118.234375 C-17.02927906 121.1250196 -31.32166412 120.07675576 -42.33203125 113.76171875 C-50.07171967 108.32498846 -55.1453858 101.74760277 -57.65625 92.6171875 C-58.73277149 84.00501561 -57.35956616 76.119024 -52.34375 68.9296875 C-39.83858076 53.68323732 -19.49221855 50.21813427 -0.90625 47.8671875 C0.37185547 47.69445312 1.64996094 47.52171875 2.96679688 47.34375 C13.06817305 46.00890637 13.06817305 46.00890637 18.03125 46.1171875 C17.94977902 42.90786095 17.83699254 39.70035311 17.71875 36.4921875 C17.69619141 35.58855469 17.67363281 34.68492187 17.65039062 33.75390625 C17.40952243 27.75409852 16.86203838 22.88229633 12.34765625 18.47265625 C11.76886719 18.08722656 11.19007812 17.70179688 10.59375 17.3046875 C10.01753906 16.90636719 9.44132812 16.50804687 8.84765625 16.09765625 C1.86153427 12.32665277 -9.42049188 12.89837323 -16.95703125 14.91796875 C-26.65239871 19.4177326 -33.94830571 27.2905735 -39.49609375 36.24609375 C-40.22505859 37.17228516 -40.22505859 37.17228516 -40.96875 38.1171875 C-41.95875 38.1171875 -42.94875 38.1171875 -43.96875 38.1171875 C-43.96875 28.8771875 -43.96875 19.6371875 -43.96875 10.1171875 C-29.23666074 3.56959227 -16.04072684 0.47364351 0 0 Z " fill="#05235B" transform="translate(1118.96875,574.8828125)"/>
<path d="M0 0 C17.49 0 34.98 0 53 0 C51.68 1.65 50.36 3.3 49 5 C48.32109939 7.41758216 48.32109939 7.41758216 48.25 9.8125 C48.16492188 10.99779297 48.16492188 10.99779297 48.078125 12.20703125 C48.03945313 13.09455078 48.03945313 13.09455078 48 14 C48.66 14 49.32 14 50 14 C50.23976059 14.61188675 50.47952118 15.2237735 50.72654724 15.85420227 C53.07815586 21.8017699 55.57996698 27.65709732 58.22265625 33.48046875 C58.60941025 34.33755936 58.99616425 35.19464996 59.39463806 36.07771301 C60.61526216 38.78188264 61.83872882 41.48475333 63.0625 44.1875 C64.28932235 46.90118952 65.51552975 49.61515486 66.74107361 52.329422 C67.49930103 54.00826578 68.25833612 55.68674511 69.01832581 57.36479187 C70.01727722 59.5742941 71.00906199 61.78689545 72 64 C72.30380585 64.66472321 72.60761169 65.32944641 72.92062378 66.01431274 C74.19766559 68.86790213 75 70.83407687 75 74 C75.66 74 76.32 74 77 74 C77.16363037 73.47792969 77.32726074 72.95585938 77.49584961 72.41796875 C79.5234525 66.12792459 81.98197794 60.08071435 84.5625 54 C85.44733317 51.88050818 86.33142332 49.76070605 87.21484375 47.640625 C89.07800932 43.18169952 90.97176902 38.7371415 92.87890625 34.296875 C93.79515284 32.1149535 94.71054352 29.93267235 95.625 27.75 C96.28157593 26.25339844 96.28157593 26.25339844 96.95141602 24.7265625 C99.88417592 17.64117518 100.53113838 11.63827568 100 4 C99.360625 3.71125 98.72125 3.4225 98.0625 3.125 C96 2 96 2 95 0 C106.55 0 118.1 0 130 0 C130 0.66 130 1.32 130 2 C128.8404296 2.95175129 127.64554583 3.86058485 126.4375 4.75 C122.71893796 7.92063949 120.73278542 10.98956283 118.61328125 15.37890625 C118.31500427 15.99365311 118.01672729 16.60839996 117.70941162 17.24177551 C114.8513437 23.18659274 112.18548903 29.21652458 109.57510376 35.27368164 C108.08869987 38.72137778 106.58783706 42.16279647 105.08984375 45.60546875 C104.76827805 46.34546112 104.44671234 47.08545349 104.11540222 47.84786987 C97.16851753 63.82527119 90.1077962 79.75321457 83.03302002 95.67431641 C82.08569856 97.80706305 81.14007582 99.94055419 80.19482422 102.07421875 C78.72314985 105.38738891 77.23980086 108.69494981 75.75 112 C75.35723877 112.886875 74.96447754 113.77375 74.55981445 114.6875 C68.94758319 127.0173108 62.86471912 136.87044683 50.11328125 142.23828125 C37.55818124 146.76368698 26.64219073 143.02153541 15 138 C15.33 136.35 15.66 134.7 16 133 C17.03447266 133.23396484 17.03447266 133.23396484 18.08984375 133.47265625 C27.49472855 135.17689712 35.88066447 134.77577137 44.30078125 130.04296875 C50.59736662 125.27724639 54.94908126 118.21566495 58 111 C57.63150282 104.4039005 52.8246038 97.83428684 49.70703125 92.22265625 C47.78133893 88.58719592 46.28118207 84.90448142 44.828125 81.0625 C44.00952923 78.86671321 44.00952923 78.86671321 42.5 76.5 C41.13553381 74.22588968 40.25420412 72.16795817 39.31640625 69.69921875 C36.69730519 63.07331068 33.5663244 56.70885373 30.4375 50.3125 C29.18620531 47.74542111 27.93670417 45.17747173 26.6875 42.609375 C26.37586411 41.96956192 26.06422821 41.32974884 25.7431488 40.67054749 C23.73081291 36.5309123 21.75889036 32.37431345 19.8125 28.203125 C19.32467041 27.16244873 18.83684082 26.12177246 18.33422852 25.04956055 C17.42926154 23.1141872 16.53088135 21.17571469 15.64038086 19.23364258 C12.6839506 12.93891224 9.65243454 6.92084898 3.1875 3.625 C2.135625 3.08875 1.08375 2.5525 0 2 C0 1.34 0 0.68 0 0 Z " fill="#05225A" transform="translate(931,579)"/>
<path d="M0 0 C7.98849743 4.48243467 12.35388486 11.33509717 15.421875 19.80859375 C18.91835031 36.97310891 18.8292598 55.98640117 8.875 71.09375 C3.45174712 77.51286568 -3.59694571 80.67579009 -11.86328125 81.46875 C-20.74457809 81.87386179 -27.05875771 80.27791574 -33.88671875 74.4921875 C-44.96741598 63.07787788 -45.30752498 48.03474504 -45.09765625 33.109375 C-44.74316872 21.65486071 -41.34260141 11.29277066 -32.83203125 3.234375 C-23.14539835 -4.32815692 -11.18001658 -5.27945228 0 0 Z " fill="#FC790B" transform="translate(807.890625,740.81640625)"/>
<path d="M0 0 C6.58734258 5.13946961 12.85974593 10.75246493 16.1875 18.5625 C16.51105469 19.30628906 16.83460938 20.05007812 17.16796875 20.81640625 C20.47309946 29.49043473 19.49524553 38.50152675 16 47 C10.69719893 56.15495081 3.8372278 62.93679721 -6 67 C-16.28472568 69.63097634 -27.68596094 68.59116241 -36.92578125 63.3359375 C-46.61699657 56.75273034 -52.2113617 48.39087849 -55 37 C-56.3496739 26.15711414 -53.5114189 17.00737904 -47.015625 8.328125 C-35.90499984 -4.50507771 -15.0108508 -9.6810976 0 0 Z " fill="#093577" transform="translate(848,210)"/>
<path d="M0 0 C6.96951551 6.77119596 9.98850295 13.99608158 10.41015625 23.63085938 C10.55889013 38.55736705 6.9144166 50.66829174 -3.25 62 C-11.95234433 70.84072083 -24.55059399 76.65847162 -37.0234375 77.09765625 C-37.88195312 77.08605469 -38.74046875 77.07445312 -39.625 77.0625 C-40.49898437 77.05347656 -41.37296875 77.04445313 -42.2734375 77.03515625 C-42.92570313 77.02355469 -43.57796875 77.01195312 -44.25 77 C-44.25 75.68 -44.25 74.36 -44.25 73 C-43.64414062 72.85304688 -43.03828125 72.70609375 -42.4140625 72.5546875 C-32.14793231 69.80652342 -23.18396833 65.0816825 -17.25 56 C-13.55259856 48.81850112 -13.55259856 48.81850112 -12.25 41 C-12.79269531 41.27714844 -13.33539062 41.55429687 -13.89453125 41.83984375 C-14.96767578 42.38318359 -14.96767578 42.38318359 -16.0625 42.9375 C-17.12404297 43.47697266 -17.12404297 43.47697266 -18.20703125 44.02734375 C-23.95825146 46.7654964 -29.82693389 47.02742101 -35.91796875 45.19921875 C-43.47243032 41.87342704 -47.01457708 36.86127931 -50.390625 29.51953125 C-52.6639829 22.85445923 -51.4271789 15.5315367 -49.25 9 C-45.50571838 2.06614516 -39.57670356 -3.09984651 -32.25 -6 C-20.42797727 -8.54984804 -9.71407265 -7.53900515 0 0 Z " fill="#FC790B" transform="translate(903.25,745)"/>
<path d="M0 0 C2.01962436 0.62889569 4.0404197 1.25404621 6.0625 1.875 C7.53589844 2.32746094 7.53589844 2.32746094 9.0390625 2.7890625 C20.82686828 5.98221495 37.85683128 7.81823645 49.0625 1.875 C52.60822565 -0.32128856 56.01530148 -2.69440466 59.375 -5.1640625 C62.0625 -7.125 62.0625 -7.125 64.0625 -8.125 C57.15507354 6.42878692 44.5748744 15.64134975 30.265625 22.11328125 C10.45667977 28.9621187 -13.24613366 21.84594492 -32.53735352 16.52416992 C-40.21062303 14.44877336 -47.76531227 13.68973786 -55.6875 13.625 C-56.38439941 13.61573486 -57.08129883 13.60646973 -57.79931641 13.59692383 C-66.38158156 13.64879578 -75.35198166 15.60126586 -81.8125 21.5 C-82.51375 22.28375 -83.215 23.0675 -83.9375 23.875 C-84.4325 24.37 -84.4325 24.37 -84.9375 24.875 C-85.0106351 26.99884328 -85.02110924 29.12500272 -85 31.25 C-84.98646484 32.99410156 -84.98646484 32.99410156 -84.97265625 34.7734375 C-84.96105469 35.79695312 -84.94945312 36.82046875 -84.9375 37.875 C-84.9375 38.865 -84.9375 39.855 -84.9375 40.875 C-92.38153913 33.55743726 -96.97098365 26.27487106 -97.375 15.625 C-97.06795317 8.9440846 -94.6369681 3.70148075 -89.9375 -1.125 C-67.22107737 -20.82863448 -24.96876089 -7.842174 0 0 Z " fill="#FC6707" transform="translate(472.9375,524.125)"/>
<path d="M0 0 C5.17811511 3.65941677 10.1662408 7.76521871 12 14 C13.1247859 22.15792993 11.58014772 28.20539407 7 35 C-1.70598029 46.45426644 -13.68308261 55.28295833 -25 64 C-20.83746725 64.09938095 -16.67557521 64.17170617 -12.51220703 64.21972656 C-11.09802205 64.23975843 -9.68391903 64.26699248 -8.27001953 64.30175781 C-6.22928581 64.35065489 -4.1896531 64.37305123 -2.1484375 64.390625 C-0.92302246 64.41157227 0.30239258 64.43251953 1.56494141 64.45410156 C5.64759575 63.91439033 7.75532227 62.46914947 11 60 C11.66 59.67 12.32 59.34 13 59 C13.51643053 66.4021709 11.81874286 71.11878096 10 79 C-8.48 79 -26.96 79 -46 79 C-46 74 -46 74 -44.03149414 71.51147461 C-43.12520264 70.65046143 -42.21891113 69.78944824 -41.28515625 68.90234375 C-40.79599228 68.42736954 -40.30682831 67.95239532 -39.80284119 67.46302795 C-38.2341576 65.94208712 -36.65010449 64.43866154 -35.0625 62.9375 C-17.31815337 46.64927127 -17.31815337 46.64927127 -8.76171875 25.0390625 C-8.72498047 23.34910156 -8.72498047 23.34910156 -8.6875 21.625 C-8.65011719 20.50351562 -8.61273437 19.38203125 -8.57421875 18.2265625 C-9.09245277 14.29939464 -10.21065188 12.76492301 -13 10 C-17.31209661 7.14258658 -22.00901959 7.37513874 -27 8 C-32.36981546 10.53293182 -34.71950526 14.2615076 -38 19 C-38.66 19 -39.32 19 -40 19 C-43.3203125 14.01953125 -43.3203125 14.01953125 -44 12 C-42.96320478 7.37092837 -40.52948312 5.48188904 -36.75 2.8125 C-35.81671875 2.13832031 -34.8834375 1.46414063 -33.921875 0.76953125 C-24.3377069 -5.03478446 -10.00229067 -5.14647776 0 0 Z " fill="#FC7B0B" transform="translate(986,741)"/>
<path d="M0 0 C0.07455949 4.02009457 0.12879358 8.03991733 0.16479492 12.06054688 C0.17981428 13.42617816 0.20023608 14.79176176 0.22631836 16.15722656 C0.26300137 18.12803905 0.27818551 20.09921408 0.29296875 22.0703125 C0.3086792 23.25383301 0.32438965 24.43735352 0.34057617 25.65673828 C-0.19399021 30.90430247 -2.24179424 34.84671389 -6.3125 38.1875 C-6.86550781 38.65542969 -7.41851563 39.12335937 -7.98828125 39.60546875 C-13.25426272 43.25586755 -17.63232312 44.50333125 -24 44.4375 C-25.02867187 44.4674707 -25.02867187 44.4674707 -26.078125 44.49804688 C-31.98977958 44.49240598 -35.44530875 42.48028277 -39.609375 38.4375 C-43.93337099 32.9880804 -45.48823758 29.52786412 -45.3046875 22.59375 C-44.60334844 16.62337649 -42.05049395 12.53890674 -37.4375 8.75 C-32.69065908 5.47539357 -27.46403574 3.72130367 -22 2 C-21.01 1.67 -20.02 1.34 -19 1 C-17.08754698 0.7735253 -15.16969058 0.5909778 -13.25 0.4375 C-11.74179687 0.31181641 -11.74179687 0.31181641 -10.203125 0.18359375 C-6.79538554 -0.0117279 -3.41264361 -0.01186699 0 0 Z " fill="#F8F9FB" transform="translate(609,633)"/>
<path d="M0 0 C0.07455949 4.02009457 0.12879358 8.03991733 0.16479492 12.06054688 C0.17981428 13.42617816 0.20023608 14.79176176 0.22631836 16.15722656 C0.26300137 18.12803905 0.27818551 20.09921408 0.29296875 22.0703125 C0.3086792 23.25383301 0.32438965 24.43735352 0.34057617 25.65673828 C-0.18636965 30.82949537 -2.2228238 34.82552992 -6.1875 38.1875 C-14.04022394 44.39473614 -22.14239266 45.02096647 -32 44 C-36.33445154 42.81990104 -39.19099572 40.16994603 -41.9375 36.6875 C-45.34828282 30.62767586 -45.01110551 23.69674231 -44 17 C-41.66216828 11.21694258 -37.14825397 7.80306843 -31.6640625 5.09765625 C-20.86569244 0.64847445 -11.49734088 -0.47154908 0 0 Z " fill="#F8F9FA" transform="translate(886,633)"/>
<path d="M0 0 C0.09938095 4.16253275 0.17170617 8.32442479 0.21972656 12.48779297 C0.23975843 13.90197795 0.26699248 15.31608097 0.30175781 16.72998047 C0.35065489 18.77071419 0.37305123 20.8103469 0.390625 22.8515625 C0.41157227 24.07697754 0.43251953 25.30239258 0.45410156 26.56494141 C-0.26358854 31.99391975 -3.28293852 35.75349677 -7.375 39.25 C-7.91898438 39.72953125 -8.46296875 40.2090625 -9.0234375 40.703125 C-13.74127733 43.79862465 -18.46089089 44.29427925 -24 44.3125 C-25.175625 44.32925781 -26.35125 44.34601562 -27.5625 44.36328125 C-32.00365448 43.89393197 -35.28851174 42.55778664 -38.609375 39.53515625 C-44.17507307 32.34930634 -44.89496737 27.07428939 -44 18 C-42.4375 14.5625 -42.4375 14.5625 -40 12 C-39.57203125 11.50242187 -39.1440625 11.00484375 -38.703125 10.4921875 C-29.0211514 0.5606785 -12.93907851 -0.01226876 0 0 Z " fill="#F9F9FB" transform="translate(1137,633)"/>
<path d="M0 0 C0.00142502 0.92628204 0.00285004 1.85256409 0.00431824 2.80691528 C0.02216571 11.54668753 0.06383107 20.28595443 0.13209057 29.02548409 C0.16634607 33.51835905 0.19146827 38.01089452 0.19555664 42.50390625 C0.19984274 46.84196776 0.2283306 51.17926359 0.27343178 55.51708603 C0.28639694 57.16998709 0.29071791 58.82297983 0.28615379 60.47592545 C0.2812404 62.79614643 0.30736778 65.11413584 0.34057617 67.43408203 C0.34723801 68.75312531 0.35389984 70.07216858 0.36076355 71.43118286 C0.84266215 75.81710399 0.84266215 75.81710399 6 81 C-4.56 81 -15.12 81 -26 81 C-24.73577236 78.47154472 -23.47154472 78.23577236 -21 77 C-19.68461687 74.36923375 -19.87289675 72.41053669 -19.87060547 69.46459961 C-19.86745331 68.30677475 -19.86430115 67.14894989 -19.86105347 65.95603943 C-19.8630777 64.70081985 -19.86510193 63.44560028 -19.8671875 62.15234375 C-19.86623077 60.87017471 -19.86527405 59.58800568 -19.86428833 58.26698303 C-19.86281329 55.55256955 -19.86496006 52.83818896 -19.86962891 50.1237793 C-19.87533178 46.63758959 -19.87204246 43.15147677 -19.86605644 39.66528988 C-19.86158345 36.34846826 -19.86471071 33.03166756 -19.8671875 29.71484375 C-19.86415115 27.82897804 -19.86415115 27.82897804 -19.86105347 25.90501404 C-19.86420563 24.75034134 -19.86735779 23.59566864 -19.87060547 22.40600586 C-19.87140106 21.38389511 -19.87219666 20.36178436 -19.87301636 19.30870056 C-19.74045036 17.03714768 -19.74045036 17.03714768 -21 16 C-23.02408755 16.09002398 -25.04544287 16.24641038 -27.0625 16.4375 C-28.16722656 16.53933594 -29.27195312 16.64117188 -30.41015625 16.74609375 C-31.69212891 16.87177734 -31.69212891 16.87177734 -33 17 C-33 16.01 -33 15.02 -33 14 C-31.94872925 13.52373169 -31.94872925 13.52373169 -30.8762207 13.0378418 C-27.68689364 11.59083474 -24.49968599 10.13921654 -21.3125 8.6875 C-20.20970703 8.18798828 -19.10691406 7.68847656 -17.97070312 7.17382812 C-16.90400391 6.68720703 -15.83730469 6.20058594 -14.73828125 5.69921875 C-13.75899658 5.25408936 -12.77971191 4.80895996 -11.77075195 4.3503418 C-8.9687973 3.05071222 -8.9687973 3.05071222 -6.39135742 1.33129883 C-4 0 -4 0 0 0 Z " fill="#FC7708" transform="translate(720,739)"/>
<path d="M0 0 C77.55 0 155.1 0 235 0 C235 1.98 235 3.96 235 6 C157.45 6 79.9 6 0 6 C0 4.02 0 2.04 0 0 Z " fill="#0A2459" transform="translate(1050,777)"/>
<path d="M0 0 C77.22 0 154.44 0 234 0 C234 1.98 234 3.96 234 6 C156.78 6 79.56 6 0 6 C0 4.02 0 2.04 0 0 Z " fill="#00114A" transform="translate(392,777)"/>
<path d="M0 0 C4.99336075 4.14636524 5.98419424 8.7743827 7 15 C7.35583598 20.03253746 7.43294384 25.0260716 7.39111328 30.06933594 C7.37507309 32.36454131 7.39101363 34.65797384 7.41015625 36.953125 C7.42651947 47.61189812 7.26149216 58.92033384 1 68 C-1.84083641 69.42041821 -3.85477278 69.31452272 -7 69 C-12.43344122 64.59040956 -13.67614236 58.6367731 -15 52 C-15.53882445 46.7399522 -15.49571849 41.46895147 -15.41162109 36.18774414 C-15.37488541 33.80506749 -15.37060489 31.42394771 -15.37109375 29.04101562 C-15.27365712 7.64601962 -15.27365712 7.64601962 -9 0 C-5.81452856 -1.59273572 -3.39809153 -0.76164121 0 0 Z " fill="#FEFBF8" transform="translate(798,746)"/>
<path d="M0 0 C4.66928881 3.32038315 6.51026615 7.60742876 8 13 C8.46319243 16.24133638 8.5547549 19.41648596 8.5625 22.6875 C8.59923828 23.51572266 8.63597656 24.34394531 8.67382812 25.19726562 C8.71575063 31.01517775 8.71575063 31.01517775 6.78491211 33.671875 C3.90462489 36.24475443 1.30153897 37.69412413 -2.5625 37.625 C-6.00460751 37.41059263 -6.99245381 37.00529839 -9.9375 34.9375 C-13.81560261 29.41414174 -14.34389696 23.53714075 -14.3125 16.9375 C-14.32861328 16.25623047 -14.34472656 15.57496094 -14.36132812 14.87304688 C-14.36666155 9.32094892 -12.72507626 5.72380462 -9.8125 1.125 C-6.69959038 -0.8071508 -3.4745898 -0.70715722 0 0 Z " fill="#FDF9F5" transform="translate(886,745)"/>
<path d="M0 0 C0.33 0 0.66 0 1 0 C1 1.65 1 3.3 1 5 C77.56 5 154.12 5 233 5 C233 4.01 233 3.02 233 2 C204.00518983 2.10467098 175.01040256 2.2143705 146.01563836 2.33111694 C142.59465424 2.34488697 139.17366995 2.358614 135.75268555 2.37231445 C135.07161231 2.37504276 134.39053907 2.37777106 133.68882725 2.38058204 C122.65250267 2.42468974 111.61616785 2.46531212 100.57982536 2.50465261 C89.26046074 2.54507933 77.94111656 2.5893111 66.62177926 2.63687855 C60.26181246 2.66348386 53.90184945 2.68833706 47.54186058 2.70907402 C41.56083484 2.72862962 35.57984546 2.75277021 29.59885216 2.78049088 C27.39897826 2.78986701 25.19909638 2.79754026 22.99921036 2.80341911 C20.00494184 2.8116707 17.01076183 2.82594479 14.01652527 2.84178162 C13.13812758 2.84275972 12.25972989 2.84373783 11.3547141 2.84474558 C7.9898855 2.86776589 5.21416226 2.92861258 2 4 C2 3.01 2 2.02 2 1 C78.56 1 155.12 1 234 1 C234 2.65 234 4.3 234 6 C156.78 6 79.56 6 0 6 C0 4.02 0 2.04 0 0 Z " fill="#1A3B6C" transform="translate(392,777)"/>
<path d="M0 0 C75.24 0 150.48 0 228 0 C228 0.99 228 1.98 228 3 C152.43 2.67 76.86 2.34 -1 2 C-0.67 1.34 -0.34 0.68 0 0 Z " fill="#011E57" transform="translate(397,779)"/>
<path d="M0 0 C2.6875 1.875 2.6875 1.875 4 4 C4 4.66 4 5.32 4 6 C3.46632813 6.14695312 2.93265625 6.29390625 2.3828125 6.4453125 C-8.31404462 9.66547364 -16.52408774 16.04611394 -25.23022461 22.80883789 C-32.96774104 28.80560569 -40.96161447 34.41639053 -49 40 C-49 37 -49 37 -47.34765625 35.125 C-46.59355469 34.42375 -45.83945312 33.7225 -45.0625 33 C-41.60238164 29.65919607 -38.45650454 26.24482793 -35.4375 22.5 C-34.31988281 21.11554688 -34.31988281 21.11554688 -33.1796875 19.703125 C-32.46039062 18.81109375 -31.74109375 17.9190625 -31 17 C-22.56454123 6.61280763 -14.00476845 -1.55148838 0 0 Z " fill="#0A275F" transform="translate(977,386)"/>
<path d="M0 0 C-2.59217484 4.90899045 -6.15814339 8.68231938 -9.9375 12.6875 C-10.60193115 13.39358398 -11.2663623 14.09966797 -11.95092773 14.82714844 C-19.28755095 22.51037686 -27.0916836 29.19193468 -36 35 C-36.66 34.67 -37.32 34.34 -38 34 C-37.46632813 33.45214844 -36.93265625 32.90429688 -36.3828125 32.33984375 C-31.07750993 26.69492839 -26.70333708 20.87300304 -22.53955078 14.35522461 C-16.44102519 4.84914469 -11.89420934 -0.69965937 0 0 Z " fill="#0C2559" transform="translate(939,404)"/>
<path d="M0 0 C0 3.74149481 -0.81102932 4.19613662 -3.25 6.9375 C-12.24781829 17.85656063 -19.48102524 30.68089366 -24.81640625 43.76171875 C-26 46 -26 46 -29 47 C-29.66 47 -30.32 47 -31 47 C-31.474375 47.495 -31.94875 47.99 -32.4375 48.5 C-34 50 -34 50 -37 50 C-29.97724412 30.68742133 -14.34948805 14.17947042 0 0 Z " fill="#0F275A" transform="translate(684,149)"/>
<path d="M0 0 C0.02315665 8.81428243 0.04093208 17.62855441 0.05181217 26.4428606 C0.05703371 30.53556708 0.06411817 34.62825276 0.07543945 38.72094727 C0.08629418 42.66963086 0.09228234 46.61829444 0.09487724 50.56699181 C0.09672682 52.07449344 0.1003385 53.58199395 0.10573006 55.08948708 C0.11297477 57.19876103 0.11398949 59.30795196 0.11352539 61.41723633 C0.115746 62.61858719 0.11796661 63.81993805 0.12025452 65.05769348 C0 68 0 68 -1 71 C-1.99 71 -2.98 71 -4 71 C-3.67 47.9 -3.34 24.8 -3 1 C-1 0 -1 0 0 0 Z " fill="#3F5888" transform="translate(756,612)"/>
<path d="M0 0 C0.99 0.33 1.98 0.66 3 1 C5.63804589 0.60602665 5.63804589 0.60602665 8 0 C8 3 8 3 5.9453125 5.234375 C4.54925781 6.47960937 4.54925781 6.47960937 3.125 7.75 C2.38866333 8.40718018 2.38866333 8.40718018 1.63745117 9.07763672 C-2.96658961 13.11456116 -7.87915092 16.64534399 -13 20 C-13.66 19.67 -14.32 19.34 -15 19 C-14.41992188 18.38253906 -13.83984375 17.76507813 -13.2421875 17.12890625 C-8.24925367 11.71577502 -3.86309662 6.27185098 0 0 Z " fill="#142E63" transform="translate(916,419)"/>
<path d="M0 0 C2.4047918 -0.00986177 4.80878095 -0.04105608 7.21337891 -0.07226562 C8.74853016 -0.07878338 10.2836874 -0.08403864 11.81884766 -0.08789062 C12.53443848 -0.10023743 13.2500293 -0.11258423 13.98730469 -0.12530518 C18.34956343 -0.10561846 19.13142255 -0.00969074 22.38134766 3.24023438 C5.88134766 3.24023438 -10.61865234 3.24023438 -27.61865234 3.24023438 C-27.28865234 2.58023438 -26.95865234 1.92023437 -26.61865234 1.24023438 C-18.10938561 -0.60284793 -8.68368748 0.02158779 0 0 Z " fill="#1B315D" transform="translate(1221.61865234375,687.759765625)"/>
<path d="M0 0 C1.1725131 0.95117134 2.33787015 1.91117009 3.5 2.875 C4.47453125 3.67550781 4.47453125 3.67550781 5.46875 4.4921875 C5.9740625 4.98976563 6.479375 5.48734375 7 6 C7 6.66 7 7.32 7 8 C-9.17 8 -25.34 8 -42 8 C-41.67 7.34 -41.34 6.68 -41 6 C-37.7 6 -34.4 6 -31 6 C-31 5.67 -31 5.34 -31 5 C-29.80455566 4.970271 -29.80455566 4.970271 -28.58496094 4.93994141 C-24.97297528 4.84466752 -21.36156601 4.73499693 -17.75 4.625 C-15.86861328 4.57859375 -15.86861328 4.57859375 -13.94921875 4.53125 C-12.74394531 4.49257813 -11.53867187 4.45390625 -10.296875 4.4140625 C-9.18666992 4.3826416 -8.07646484 4.3512207 -6.93261719 4.31884766 C-4.11134958 4.01210644 -2.4029991 3.45713775 0 2 C0 1.34 0 0.68 0 0 Z " fill="#213A6A" transform="translate(787,683)"/>
<path d="M0 0 C2.18109095 2.18109095 2.82485185 2.95680092 3 6 C1.375 8.296875 1.375 8.296875 -1 10.75 C-1.83015625 11.62398438 -2.6603125 12.49796875 -3.515625 13.3984375 C-4.33546875 14.25695312 -5.1553125 15.11546875 -6 16 C-7.25813882 17.45131762 -8.50906779 18.90894292 -9.75 20.375 C-12.27158369 23.27864182 -14.87647149 25.7283429 -18 28 C-16.66113212 25.171887 -15.15060536 22.67240408 -13.3203125 20.13671875 C-12.80339844 19.41419922 -12.28648437 18.69167969 -11.75390625 17.94726562 C-10.6761989 16.45217281 -9.59808024 14.95737639 -8.51953125 13.46289062 C-5.39654728 9.09613761 -2.576522 4.7111767 0 0 Z " fill="#FD8C28" transform="translate(1000,430)"/>
<path d="M0 0 C1.81178763 3.08284795 2.14320444 5.02336753 1.875 8.5625 C1.72626557 17.74347049 5.19795688 24.86191285 11.31640625 31.5390625 C13.04562021 33.2279416 13.04562021 33.2279416 16 34 C15.67 34.99 15.34 35.98 15 37 C7.78241742 33.12715081 4.13118238 26.69404945 0.125 19.75 C-1.60482775 13.98390749 -2.163907 8.01772842 -2 2 C-1.34 1.34 -0.68 0.68 0 0 Z " fill="#EEE6DF" transform="translate(375,531)"/>
<path d="M0 0 C2.475 1.485 2.475 1.485 5 3 C0.76790414 7.50513431 -3.88695859 11.514292 -9 15 C-9.66 15 -10.32 15 -11 15 C-11.66 16.32 -12.32 17.64 -13 19 C-13.66 19 -14.32 19 -15 19 C-13.40212025 15.35752143 -11.15207958 12.55600321 -8.625 9.5 C-7.85414063 8.5615625 -7.08328125 7.623125 -6.2890625 6.65625 C-4.27933934 4.32414804 -2.21072222 2.14005986 0 0 Z " fill="#FD8A23" transform="translate(703,151)"/>
<path d="M0 0 C0.66 0 1.32 0 2 0 C2 0.66 2 1.32 2 2 C2.66 2.33 3.32 2.66 4 3 C2.62453471 6.26443763 1.24022413 7.83985058 -1.6953125 9.796875 C-2.76845703 10.52197266 -2.76845703 10.52197266 -3.86328125 11.26171875 C-4.60964844 11.75285156 -5.35601563 12.24398438 -6.125 12.75 C-6.87910156 13.25660156 -7.63320313 13.76320313 -8.41015625 14.28515625 C-10.26816252 15.53166679 -12.13137547 16.76948884 -14 18 C-14 15 -14 15 -12.20703125 12.94921875 C-11.41683594 12.20285156 -10.62664063 11.45648438 -9.8125 10.6875 C-7.05819095 8.03712714 -4.43347589 5.43692734 -2.0625 2.4375 C-1.381875 1.633125 -0.70125 0.82875 0 0 Z " fill="#162E67" transform="translate(942,408)"/>
<path d="M0 0 C0.8652832 -0.00128906 1.73056641 -0.00257813 2.62207031 -0.00390625 C8.78049678 0.10366452 8.78049678 0.10366452 12.1875 2.375 C11.52741943 2.39481934 10.86733887 2.41463867 10.18725586 2.43505859 C7.16613636 2.53093352 4.14564992 2.64035753 1.125 2.75 C0.08666016 2.7809375 -0.95167969 2.811875 -2.02148438 2.84375 C-7.64486867 3.05797416 -12.4808445 3.57922047 -17.8125 5.375 C-21.625 6.125 -21.625 6.125 -24.8125 6.375 C-25.4725 5.715 -26.1325 5.055 -26.8125 4.375 C-17.83808907 1.56736306 -9.43696673 -0.0137515 0 0 Z " fill="#FC691C" transform="translate(417.8125,513.625)"/>
<path d="M0 0 C1.258125 -0.020625 2.51625 -0.04125 3.8125 -0.0625 C4.52019531 -0.07410156 5.22789062 -0.08570313 5.95703125 -0.09765625 C8 0 8 0 11 1 C11.33 1.99 11.66 2.98 12 4 C8.7 7.63 5.4 11.26 2 15 C1.67 14.34 1.34 13.68 1 13 C0.01 12.67 -0.98 12.34 -2 12 C-1.59007812 11.52949219 -1.18015625 11.05898438 -0.7578125 10.57421875 C-0.21898437 9.95160156 0.31984375 9.32898438 0.875 8.6875 C1.40867187 8.07261719 1.94234375 7.45773437 2.4921875 6.82421875 C4.1640447 4.86501788 4.1640447 4.86501788 6 2 C3.03 1.505 3.03 1.505 0 1 C0 0.67 0 0.34 0 0 Z " fill="#DEE3EB" transform="translate(932,403)"/>
<path d="M0 0 C17.49 0 34.98 0 53 0 C51.68 1.32 50.36 2.64 49 4 C48.34 3.34 47.68 2.68 47 2 C43.98691049 1.82453518 41.06689546 1.76872555 38.0546875 1.8046875 C36.72716965 1.80893234 36.72716965 1.80893234 35.37283325 1.81326294 C32.54008588 1.8244776 29.70765216 1.8495843 26.875 1.875 C24.95703581 1.88502815 23.03906667 1.89415428 21.12109375 1.90234375 C16.41394124 1.92442111 11.70702384 1.95895955 7 2 C6.67 2.99 6.34 3.98 6 5 C4.02 4.01 2.04 3.02 0 2 C0 1.34 0 0.68 0 0 Z " fill="#0B265C" transform="translate(931,579)"/>
<path d="M0 0 C0.33 0 0.66 0 1 0 C1.33 5.28 1.66 10.56 2 16 C3.98 16.66 5.96 17.32 8 18 C8 21.31766523 7.54749052 22.0703452 5.6875 24.6875 C5.25824219 25.31011719 4.82898437 25.93273437 4.38671875 26.57421875 C3.70029297 27.27998047 3.70029297 27.27998047 3 28 C2.01 28 1.02 28 0 28 C0 18.76 0 9.52 0 0 Z " fill="#192E60" transform="translate(1075,585)"/>
<path d="M0 0 C1.21236328 0.02707031 1.21236328 0.02707031 2.44921875 0.0546875 C3.37154297 0.08949219 3.37154297 0.08949219 4.3125 0.125 C2.43357727 3.60100706 0.8617134 6.24600467 -2.6875 8.125 C-5.375 7.9375 -5.375 7.9375 -7.6875 7.125 C-8.0175 6.465 -8.3475 5.805 -8.6875 5.125 C-10.6675 6.115 -10.6675 6.115 -12.6875 7.125 C-5.59217359 -0.16209199 -5.59217359 -0.16209199 0 0 Z " fill="#132F67" transform="translate(934.6875,403.875)"/>
<path d="M0 0 C0.33 0 0.66 0 1 0 C1.66 4.29 2.32 8.58 3 13 C1.35 12.67 -0.3 12.34 -2 12 C-1.67 13.98 -1.34 15.96 -1 18 C-1.66 18.33 -2.32 18.66 -3 19 C-5.00849574 14.85747753 -5.48262992 11.5849842 -5 7 C-3.50254139 4.39152371 -2.12971098 2.12971098 0 0 Z " fill="#183061" transform="translate(399,548)"/>
<path d="M0 0 C5.28 0 10.56 0 16 0 C15.01 0.495 15.01 0.495 14 1 C14 1.66 14 2.32 14 3 C13.01 3.33 12.02 3.66 11 4 C10.01 5.485 10.01 5.485 9 7 C8.34 7 7.68 7 7 7 C6.67 7.66 6.34 8.32 6 9 C5.62875 8.1028125 5.62875 8.1028125 5.25 7.1875 C3.83555909 4.71222841 2.27139812 3.66569196 0 2 C0 1.34 0 0.68 0 0 Z " fill="#213666" transform="translate(666,529)"/>
<path d="M0 0 C0.66 0 1.32 0 2 0 C3.00605593 2.60197202 4.00502525 5.20629362 5 7.8125 C5.28617188 8.55048828 5.57234375 9.28847656 5.8671875 10.04882812 C6.13789062 10.76103516 6.40859375 11.47324219 6.6875 12.20703125 C6.93886719 12.8616333 7.19023438 13.51623535 7.44921875 14.19067383 C8 16 8 16 8 19 C8.680625 19.2475 9.36125 19.495 10.0625 19.75 C13.56865083 21.24197908 16.71620368 23.06835511 20 25 C19.67 25.66 19.34 26.32 19 27 C14.32255608 25.66358745 10.75297953 24.12425873 7 21 C5.30936792 17.91900255 4.21921251 14.70737447 3.125 11.375 C2.66480469 10.06789063 2.66480469 10.06789063 2.1953125 8.734375 C0 2.40325056 0 2.40325056 0 0 Z " fill="#1E5496" transform="translate(797,360)"/>
<path d="M0 0 C0 5.04169875 -3.78637167 8.32159072 -7 12 C-9.9375 14.5625 -9.9375 14.5625 -12 16 C-14 13 -14 13 -13.96484375 11.0390625 C-12.53622127 8.01986844 -10.40701948 7.0543392 -7.5625 5.375 C-3.53325054 3.00613279 -3.53325054 3.00613279 0 0 Z " fill="#FC7410" transform="translate(536,516)"/>
<path d="M0 0 C0 3.85831564 -1.14637446 4.6707702 -3.625 7.5625 C-7.65334421 12.42948527 -10.91044147 17.49964959 -14 23 C-14.33 22.01 -14.66 21.02 -15 20 C-15.99 19.67 -16.98 19.34 -18 19 C-15.56332397 16.39506131 -13.12551596 13.79118463 -10.6875 11.1875 C-9.99720703 10.44951172 -9.30691406 9.71152344 -8.59570312 8.95117188 C-7.92861328 8.23896484 -7.26152344 7.52675781 -6.57421875 6.79296875 C-5.65515747 5.81106567 -5.65515747 5.81106567 -4.7175293 4.80932617 C-3.16996771 3.17905198 -1.59789755 1.58078486 0 0 Z " fill="#1A2A5D" transform="translate(684,149)"/>
<path d="M0 0 C0.99 0.33 1.98 0.66 3 1 C2.45028435 4.84800954 0.72962142 6.35309439 -2 9 C-3.23512079 11.13309192 -3.23512079 11.13309192 -4 13 C-5.98 12.34 -7.96 11.68 -10 11 C-6.79239749 7.19364503 -3.59253891 3.45436433 0 0 Z " fill="#F4F5F8" transform="translate(930,415)"/>
<path d="M0 0 C1.99788438 0.34578768 3.99759451 0.68143549 6 1 C6 1.33 6 1.66 6 2 C4.865625 2.061875 3.73125 2.12375 2.5625 2.1875 C-1.92107921 2.72807338 -5.12491551 4.50317113 -8.9609375 6.796875 C-11.22934522 8.13532247 -13.53408478 9.08408863 -16 10 C-17.34050052 10.65213539 -18.67661368 11.31379969 -20 12 C-15.9767319 5.96509785 -7.54542906 -2.09595252 0 0 Z " fill="#162F62" transform="translate(970,387)"/>
<path d="M0 0 C0 2.31 0 4.62 0 7 C-0.66 7 -1.32 7 -2 7 C-2 9.64 -2 12.28 -2 15 C-2.66 15 -3.32 15 -4 15 C-4 25.23 -4 35.46 -4 46 C-4.33 46 -4.66 46 -5 46 C-5.05019229 41.68076 -5.08608563 37.36168355 -5.10986328 33.04223633 C-5.11979663 31.57899003 -5.13334793 30.11576289 -5.15087891 28.65258789 C-5.37002409 9.86411108 -5.37002409 9.86411108 -3 1 C-1 0 -1 0 0 0 Z " fill="#354776" transform="translate(626,266)"/>
<path d="M0 0 C7.27001933 2.20280834 13.81147108 5.22486108 20.5625 8.6875 C21.57119141 9.19861328 22.57988281 9.70972656 23.61914062 10.23632812 C26.08228026 11.48540841 28.54241501 12.74003611 31 14 C27.27065385 15.09188599 25.77998863 14.77816217 22.25 13.0625 C21.29996094 12.60617187 20.34992187 12.14984375 19.37109375 11.6796875 C17.70240234 10.84824219 17.70240234 10.84824219 16 10 C14.97350342 9.49194824 14.97350342 9.49194824 13.92626953 8.97363281 C9.27332759 6.67035954 4.63318026 4.34274987 0 2 C0 1.34 0 0.68 0 0 Z " fill="#12255A" transform="translate(728,252)"/>
<path d="M0 0 C1.33333333 2.66666667 2.66666667 5.33333333 4 8 C5.65 7.01 7.3 6.02 9 5 C9.16834933 6.77067416 9.33461909 8.54154612 9.5 10.3125 C9.5928125 11.29863281 9.685625 12.28476562 9.78125 13.30078125 C10 16 10 16 10 19 C4.4640253 13.43772613 0.754796 8.73206987 -1 1 C-0.67 0.67 -0.34 0.34 0 0 Z " fill="#F87E31" transform="translate(378,546)"/>
<path d="M0 0 C1.32 0.33 2.64 0.66 4 1 C-0.49226124 6.01059907 -5.32203007 8.37000284 -12 9 C-22.29032258 9.47311828 -22.29032258 9.47311828 -26 7 C-25.34515625 7.03480469 -24.6903125 7.06960938 -24.015625 7.10546875 C-17.42683765 7.30089888 -11.7757997 6.43767586 -5.43359375 4.65625 C-3 4 -3 4 -1 4 C-0.67 2.68 -0.34 1.36 0 0 Z " fill="#0D2458" transform="translate(848,269)"/>
<path d="M0 0 C0.33 0 0.66 0 1 0 C1.19275481 4.34117362 1.37139593 8.68263202 1.53710938 13.02490234 C1.59542647 14.50129674 1.65756463 15.97754544 1.72363281 17.45361328 C1.81805803 19.57818061 1.89862513 21.70289674 1.9765625 23.828125 C2.02893066 25.1059082 2.08129883 26.38369141 2.13525391 27.70019531 C2.00728342 30.82230558 1.66891271 32.41403969 0 35 C-1.0625 33.125 -1.0625 33.125 -2 31 C-1.67 30.34 -1.34 29.68 -1 29 C-0.84530633 26.82325217 -0.74997894 24.6421652 -0.68359375 22.4609375 C-0.62075195 20.50800781 -0.62075195 20.50800781 -0.55664062 18.515625 C-0.51682701 17.13541955 -0.47711478 15.75521117 -0.4375 14.375 C-0.39430593 12.98696585 -0.35069135 11.59894472 -0.30664062 10.2109375 C-0.20028 6.80739744 -0.09825286 3.40378222 0 0 Z M2 14 C2.33 14 2.66 14 3 14 C3 18.62 3 23.24 3 28 C2.67 28 2.34 28 2 28 C2 23.38 2 18.76 2 14 Z " fill="#3B5284" transform="translate(609,633)"/>
<path d="M0 0 C4.75 0.75 4.75 0.75 7 3 C7.99 3.66 8.98 4.32 10 5 C10.6875 7.125 10.6875 7.125 11 9 C7 7.66666667 3 6.33333333 -1 5 C-0.67 3.35 -0.34 1.7 0 0 Z " fill="#233A6C" transform="translate(947,712)"/>
<path d="M0 0 C11.55 0 23.1 0 35 0 C35 0.66 35 1.32 35 2 C33.02 2.99 33.02 2.99 31 4 C30.67 3.34 30.34 2.68 30 2 C21.42 2 12.84 2 4 2 C3.67 2.66 3.34 3.32 3 4 C2.01 2.68 1.02 1.36 0 0 Z " fill="#152D63" transform="translate(1026,579)"/>
<path d="M0 0 C0 3 0 3 -1.64453125 4.82421875 C-2.71767578 5.74654297 -2.71767578 5.74654297 -3.8125 6.6875 C-4.52019531 7.31011719 -5.22789062 7.93273437 -5.95703125 8.57421875 C-8 10 -8 10 -11 10 C-11 9.01 -11 8.02 -11 7 C-11.66 6.67 -12.32 6.34 -13 6 C-8.71 4.02 -4.42 2.04 0 0 Z " fill="#15295E" transform="translate(968,222)"/>
<path d="M0 0 C2.0625 0.4375 2.0625 0.4375 4 1 C4.29296875 7.0546875 4.29296875 7.0546875 4 9 C3.01 9.66 2.02 10.32 1 11 C-1 9 -1 9 -1.23046875 7.08984375 C-1.11111111 1.11111111 -1.11111111 1.11111111 0 0 Z " fill="#2A4485" transform="translate(674,194)"/>
<path d="M0 0 C7.92 0 15.84 0 24 0 C24 0.33 24 0.66 24 1 C23.33355469 1.04898438 22.66710938 1.09796875 21.98046875 1.1484375 C15.22242201 1.69664269 8.64811086 2.67552143 2 4 C1.34 2.68 0.68 1.36 0 0 Z " fill="#0F2B65" transform="translate(1272,579)"/>
<path d="M0 0 C6.27 0 12.54 0 19 0 C19 0.99 19 1.98 19 3 C19.66 3.66 20.32 4.32 21 5 C13.84404654 4.29843593 6.98144819 2.69214979 0 1 C0 0.67 0 0.34 0 0 Z " fill="#2B3E69" transform="translate(802,440)"/>
<path d="M0 0 C0.66 0.33 1.32 0.66 2 1 C-1.97390104 4.51490943 -5.99811905 7.75835581 -10.37109375 10.76171875 C-12.28929085 12.1478229 -12.28929085 12.1478229 -14.6875 14.875 C-15.8321875 15.926875 -15.8321875 15.926875 -17 17 C-19.14453125 16.6328125 -19.14453125 16.6328125 -21 16 C-20.23816406 15.43152344 -19.47632813 14.86304688 -18.69140625 14.27734375 C-12.41076545 9.5805849 -6.16822391 4.84423645 0 0 Z " fill="#D9DFE9" transform="translate(955,405)"/>
<path d="M0 0 C0.99 1.32 1.98 2.64 3 4 C-0.43361902 7.63559661 -3.7973607 10.36113346 -8 13 C-8.66 12.67 -9.32 12.34 -10 12 C-9.36191406 11.30132812 -8.72382812 10.60265625 -8.06640625 9.8828125 C-7.24011719 8.97273438 -6.41382813 8.06265625 -5.5625 7.125 C-4.73878906 6.22007812 -3.91507813 5.31515625 -3.06640625 4.3828125 C-0.99092058 2.18862073 -0.99092058 2.18862073 0 0 Z " fill="#1E356A" transform="translate(911,426)"/>
<path d="M0 0 C1.32 0 2.64 0 4 0 C4.75 2.25 4.75 2.25 5 5 C3.0625 7.3125 3.0625 7.3125 1 9 C0.01 8.67 -0.98 8.34 -2 8 C-1.47731534 5.23723823 -0.89130413 2.6739124 0 0 Z " fill="#0D2356" transform="translate(953,229)"/>
<path d="M0 0 C-1.28627711 1.17260611 -2.57919783 2.3379283 -3.875 3.5 C-4.59429688 4.1496875 -5.31359375 4.799375 -6.0546875 5.46875 C-8 7 -8 7 -10 7 C-10.66 8.32 -11.32 9.64 -12 11 C-12.66 11 -13.32 11 -14 11 C-12.65263662 8.06559801 -11.11433035 5.74926573 -9 3.3125 C-8.484375 2.71050781 -7.96875 2.10851562 -7.4375 1.48828125 C-4.8144661 -1.22741417 -3.45203098 -1.0356093 0 0 Z " fill="#FE8114" transform="translate(702,159)"/>
<path d="M0 0 C0.99 0 1.98 0 3 0 C3.99 2.31 4.98 4.62 6 7 C3.36 7.33 0.72 7.66 -2 8 C-1.125 2.25 -1.125 2.25 0 0 Z " fill="#1E3362" transform="translate(377,646)"/>
<path d="M0 0 C5.15171623 -0.09038099 9.91913204 0.15318867 15 1 C15 1.33 15 1.66 15 2 C13.02 2.33 11.04 2.66 9 3 C8.67 3.99 8.34 4.98 8 6 C5.0280615 4.87548273 2.66559313 3.77706209 0 2 C0 1.34 0 0.68 0 0 Z " fill="#C5CBDA" transform="translate(785,438)"/>
<path d="M0 0 C0 0.99 0 1.98 0 3 C-5.38490641 3.91657981 -10.54230189 4.11138159 -16 4 C-16 3.34 -16 2.68 -16 2 C-14.08404518 1.66259915 -12.16720278 1.33023588 -10.25 1 C-9.18265625 0.814375 -8.1153125 0.62875 -7.015625 0.4375 C-4 0 -4 0 0 0 Z " fill="#182F68" transform="translate(1114,624)"/>
<path d="M0 0 C2.64 0 5.28 0 8 0 C8 0.66 8 1.32 8 2 C14.6 2.33 21.2 2.66 28 3 C28 3.33 28 3.66 28 4 C8.46808511 4.57446809 8.46808511 4.57446809 0 1 C0 0.67 0 0.34 0 0 Z " fill="#586A93" transform="translate(553,690)"/>
<path d="M0 0 C0.53625 0.680625 1.0725 1.36125 1.625 2.0625 C2.40875 3.031875 3.1925 4.00125 4 5 C4.49371094 5.61230469 4.98742187 6.22460938 5.49609375 6.85546875 C6.27146484 7.79326172 6.27146484 7.79326172 7.0625 8.75 C7.54847656 9.34296875 8.03445313 9.9359375 8.53515625 10.546875 C10.04793022 12.26243115 10.04793022 12.26243115 13 13 C12.67 13.99 12.34 14.98 12 16 C5.84140517 12.69538814 2.73686994 7.79325399 -1 2 C-0.67 1.34 -0.34 0.68 0 0 Z " fill="#E4DEDB" transform="translate(378,552)"/>
<path d="M0 0 C-0.61538462 5.53846154 -0.61538462 5.53846154 -2.5625 7.875 C-3.2740625 8.431875 -3.2740625 8.431875 -4 9 C-5.32 8.01 -6.64 7.02 -8 6 C-3.375 0 -3.375 0 0 0 Z " fill="#10275B" transform="translate(669,169)"/>
<path d="M0 0 C-2.48287565 6.09433114 -8.03391309 9.95783623 -13 14 C-12.51061681 9.72538761 -10.04257174 7.67448934 -7.0625 4.75 C-6.16660156 3.85796875 -5.27070312 2.9659375 -4.34765625 2.046875 C-2 0 -2 0 0 0 Z " fill="#FD7C15" transform="translate(717,139)"/>
<path d="M0 0 C0.144375 0.598125 0.28875 1.19625 0.4375 1.8125 C0.8872439 3.56150404 1.42892341 5.28677023 2 7 C1.01 8.485 1.01 8.485 0 10 C-0.66 10 -1.32 10 -2 10 C-2.144375 10.78375 -2.28875 11.5675 -2.4375 12.375 C-3 15 -3 15 -4 17 C-4.66 17 -5.32 17 -6 17 C-4.13236819 11.27789404 -2.14710968 5.62338249 0 0 Z " fill="#1F3568" transform="translate(1017,629)"/>
<path d="M0 0 C0.88365234 0.00451172 1.76730469 0.00902344 2.67773438 0.01367188 C4.84768559 0.02540134 7.01760172 0.04333505 9.1875 0.0625 C9.1875 0.3925 9.1875 0.7225 9.1875 1.0625 C4.8975 1.0625 0.6075 1.0625 -3.8125 1.0625 C-3.8125 1.7225 -3.8125 2.3825 -3.8125 3.0625 C-8.1025 3.0625 -12.3925 3.0625 -16.8125 3.0625 C-12.51167567 -1.23832433 -5.70674792 -0.05532269 0 0 Z " fill="#55688F" transform="translate(758.8125,385.9375)"/>
<path d="M0 0 C5.75 1.75 5.75 1.75 8 4 C8.2475 4.598125 8.495 5.19625 8.75 5.8125 C10.57662721 9.00909761 13.10814238 10.73680708 16 13 C15.34 13.66 14.68 14.32 14 15 C13.24074219 14.22914063 12.48148438 13.45828125 11.69921875 12.6640625 C10.69544634 11.65090904 9.69153268 10.63789552 8.6875 9.625 C8.18798828 9.11710938 7.68847656 8.60921875 7.17382812 8.0859375 C4.87457613 5.77145867 2.72478775 3.81652517 0 2 C0 1.34 0 0.68 0 0 Z " fill="#283766" transform="translate(707,243)"/>
<path d="M0 0 C3.63 0.33 7.26 0.66 11 1 C10.67 1.99 10.34 2.98 10 4 C6.7 4 3.4 4 0 4 C0 2.68 0 1.36 0 0 Z " fill="#FA8A34" transform="translate(859,818)"/>
<path d="M0 0 C0.66 0.99 1.32 1.98 2 3 C-1.72346836 7.42094803 -5.29521038 11.57833482 -10 15 C-8.37815499 11.41486894 -6.20743761 8.41007677 -3.875 5.25 C-3.15054688 4.26515625 -2.42609375 3.2803125 -1.6796875 2.265625 C-1.12539063 1.51796875 -0.57109375 0.7703125 0 0 Z " fill="#FC8736" transform="translate(992,443)"/>
<path d="M0 0 C0.53625 0.226875 1.0725 0.45375 1.625 0.6875 C1.625 1.3475 1.625 2.0075 1.625 2.6875 C2.285 3.0175 2.945 3.3475 3.625 3.6875 C-0.335 4.3475 -4.295 5.0075 -8.375 5.6875 C-8.375 4.6975 -8.375 3.7075 -8.375 2.6875 C-2.95961538 -0.38942308 -2.95961538 -0.38942308 0 0 Z " fill="#FD801F" transform="translate(695.375,750.3125)"/>
<path d="M0 0 C0.99 0.33 1.98 0.66 3 1 C3 3.64 3 6.28 3 9 C1.68 9 0.36 9 -1 9 C-1.625 5.625 -1.625 5.625 -2 2 C-1.34 1.34 -0.68 0.68 0 0 Z " fill="#0B2353" transform="translate(886,422)"/>
<path d="M0 0 C0 0.66 0 1.32 0 2 C0.66 2.33 1.32 2.66 2 3 C-5.43993062 4.72005735 -13.54607684 4.65642737 -21 3 C-21 2.67 -21 2.34 -21 2 C-19.96359375 2.02320313 -18.9271875 2.04640625 -17.859375 2.0703125 C-16.48959056 2.08907667 -15.1197983 2.10727618 -13.75 2.125 C-12.72712891 2.15013672 -12.72712891 2.15013672 -11.68359375 2.17578125 C-7.30963038 2.21824691 -3.9513795 0 0 0 Z " fill="#02174A" transform="translate(582,689)"/>
<path d="M0 0 C-0.66 0 -1.32 0 -2 0 C-2.33 0.66 -2.66 1.32 -3 2 C-5.475 1.505 -5.475 1.505 -8 1 C-8 1.66 -8 2.32 -8 3 C-12.65537393 3.83796731 -16.37078475 4.0161692 -21 3 C-21 2.67 -21 2.34 -21 2 C-18.25162151 1.46892686 -15.50187625 0.94984119 -12.75 0.4375 C-11.97269531 0.28603516 -11.19539062 0.13457031 -10.39453125 -0.02148438 C-9.64042969 -0.16005859 -8.88632812 -0.29863281 -8.109375 -0.44140625 C-7.07248535 -0.63778687 -7.07248535 -0.63778687 -6.01464844 -0.83813477 C-3.78712058 -1.01710362 -2.12493038 -0.65206197 0 0 Z " fill="#425583" transform="translate(703,526)"/>
<path d="M0 0 C0 3.60573896 -0.81707462 4.41336566 -3 7.1875 C-3.556875 7.90292969 -4.11375 8.61835937 -4.6875 9.35546875 C-5.120625 9.89816406 -5.55375 10.44085937 -6 11 C-6.99 10.01 -7.98 9.02 -9 8 C-6.14723863 5.06799526 -3.34920216 2.35684596 0 0 Z " fill="#FD7F28" transform="translate(536,516)"/>
<path d="M0 0 C1.65 0.33 3.3 0.66 5 1 C5 1.99 5 2.98 5 4 C0.8803623 5.29243536 -2.66831683 6.26252625 -7 6 C-6.360625 5.896875 -5.72125 5.79375 -5.0625 5.6875 C-4.381875 5.460625 -3.70125 5.23375 -3 5 C-2.67 4.01 -2.34 3.02 -2 2 C-1.34 2 -0.68 2 0 2 C0 1.34 0 0.68 0 0 Z " fill="#1C3062" transform="translate(923,685)"/>
<path d="M0 0 C1.134375 0.020625 2.26875 0.04125 3.4375 0.0625 C3.4375 0.7225 3.4375 1.3825 3.4375 2.0625 C-0.65253859 3.21232602 -4.59427051 3.17344256 -8.8125 3.125 C-9.55757812 3.12048828 -10.30265625 3.11597656 -11.0703125 3.11132812 C-12.9010764 3.09959246 -14.73179873 3.0816585 -16.5625 3.0625 C-16.5625 2.7325 -16.5625 2.4025 -16.5625 2.0625 C-15.70785156 2.00191406 -14.85320313 1.94132813 -13.97265625 1.87890625 C-12.31556641 1.75322266 -12.31556641 1.75322266 -10.625 1.625 C-9.52285156 1.54378906 -8.42070313 1.46257813 -7.28515625 1.37890625 C-3.70309481 0.96262651 -3.91990531 0.06877027 0 0 Z " fill="#021747" transform="translate(916.5625,687.9375)"/>
<path d="M0 0 C0.99 0.33 1.98 0.66 3 1 C2.38511719 1.68835938 2.38511719 1.68835938 1.7578125 2.390625 C1.21898437 3.00421875 0.68015625 3.6178125 0.125 4.25 C-0.40867187 4.85328125 -0.94234375 5.4565625 -1.4921875 6.078125 C-2.9797487 7.97418746 -4.00322436 9.81290005 -5 12 C-5.66 12 -6.32 12 -7 12 C-5.63855967 6.80177328 -3.53269829 3.90456127 0 0 Z " fill="#1A3068" transform="translate(819,639)"/>
<path d="M0 0 C0.66 0.33 1.32 0.66 2 1 C2.99 0.67 3.98 0.34 5 0 C7.64752004 2.57784846 9.94432065 4.91648098 12 8 C7.1725201 6.58707905 3.2837641 4.57025846 -1 2 C-0.67 1.34 -0.34 0.68 0 0 Z " fill="#D3D9E3" transform="translate(394,569)"/>
<path d="M0 0 C1.258125 -0.020625 2.51625 -0.04125 3.8125 -0.0625 C4.52019531 -0.07410156 5.22789062 -0.08570313 5.95703125 -0.09765625 C8 0 8 0 11 1 C11.33 1.99 11.66 2.98 12 4 C10.68 4.99 9.36 5.98 8 7 C8 6.34 8 5.68 8 5 C7.01 4.67 6.02 4.34 5 4 C5.33 3.34 5.66 2.68 6 2 C3.03 1.505 3.03 1.505 0 1 C0 0.67 0 0.34 0 0 Z " fill="#CDD4DF" transform="translate(932,403)"/>
<path d="M0 0 C-0.33 0.66 -0.66 1.32 -1 2 C-6.94 1.34 -12.88 0.68 -19 0 C-19 -0.33 -19 -0.66 -19 -1 C-12.13252891 -2.10765663 -6.73281213 -1.700773 0 0 Z " fill="#0A2966" transform="translate(1146,578)"/>
<path d="M0 0 C4.62 0 9.24 0 14 0 C14 0.66 14 1.32 14 2 C15.65 2 17.3 2 19 2 C19 2.33 19 2.66 19 3 C12.4294834 3.24794402 6.43028541 2.32388229 0 1 C0 0.67 0 0.34 0 0 Z " fill="#364877" transform="translate(394,690)"/>
<path d="M0 0 C1.65 0 3.3 0 5 0 C5 0.33 5 0.66 5 1 C10.28 1.33 15.56 1.66 21 2 C21 2.33 21 2.66 21 3 C17.87501937 3.02895976 14.7500731 3.04678483 11.625 3.0625 C10.73554687 3.07087891 9.84609375 3.07925781 8.9296875 3.08789062 C7.65351562 3.09272461 7.65351562 3.09272461 6.3515625 3.09765625 C5.17327881 3.10551147 5.17327881 3.10551147 3.97119141 3.11352539 C2 3 2 3 0 2 C0 1.34 0 0.68 0 0 Z " fill="#304272" transform="translate(618,689)"/>
<path d="M0 0 C0.33 0.66 0.66 1.32 1 2 C1.99 2.33 2.98 2.66 4 3 C2.87926138 3.83905565 1.75325453 4.67107831 0.625 5.5 C-0.00148438 5.9640625 -0.62796875 6.428125 -1.2734375 6.90625 C-3 8 -3 8 -5 8 C-3.375 2.25 -3.375 2.25 0 0 Z " fill="#132B5D" transform="translate(497,675)"/>
<path d="M0 0 C2 2 2 2 2 5 C1.34 5 0.68 5 0 5 C0.33 6.32 0.66 7.64 1 9 C0.01 9.33 -0.98 9.66 -2 10 C-2 10.66 -2 11.32 -2 12 C-2.66 12 -3.32 12 -4 12 C-2.66666667 8 -1.33333333 4 0 0 Z " fill="#1A3268" transform="translate(1024,612)"/>
<path d="M0 0 C-3.53834904 2.12300942 -6.90823045 2.69690596 -11 3 C-11.66 2.34 -12.32 1.68 -13 1 C-8.23947038 -0.97387813 -5.03511899 -1.0070238 0 0 Z M-14 3 C-11 4 -11 4 -11 4 Z " fill="#122D69" transform="translate(847,580)"/>
<path d="M0 0 C0.33 1.32 0.66 2.64 1 4 C-0.09283577 5.03295436 -1.19970579 6.05107835 -2.3125 7.0625 C-2.92738281 7.63097656 -3.54226563 8.19945312 -4.17578125 8.78515625 C-4.77777344 9.18605469 -5.37976563 9.58695312 -6 10 C-6.99 9.67 -7.98 9.34 -9 9 C-6.03 6.03 -3.06 3.06 0 0 Z " fill="#1A407F" transform="translate(854,296)"/>
<path d="M0 0 C0.66 0.99 1.32 1.98 2 3 C0.625 6.6875 0.625 6.6875 -1 10 C-1.66 10 -2.32 10 -3 10 C-3 10.66 -3 11.32 -3 12 C-3.66 12 -4.32 12 -5 12 C-3.68938409 7.76570244 -2.05643741 3.92592596 0 0 Z " fill="#163169" transform="translate(644,203)"/>
<path d="M0 0 C-1.43409972 3.35861695 -3.19369321 5.35874939 -5.9375 7.75 C-6.62714844 8.36359375 -7.31679688 8.9771875 -8.02734375 9.609375 C-10 11 -10 11 -13 11 C-11.21427748 9.16052663 -9.42197551 7.32842259 -7.625 5.5 C-7.11710938 4.97535156 -6.60921875 4.45070313 -6.0859375 3.91015625 C-2.2265625 0 -2.2265625 0 0 0 Z " fill="#E4EAF2" transform="translate(566,595)"/>
<path d="M0 0 C0.33 0 0.66 0 1 0 C1.8125 3.1875 1.8125 3.1875 2 7 C-0.25 9.75 -0.25 9.75 -3 12 C-3.598125 12.598125 -4.19625 13.19625 -4.8125 13.8125 C-5.204375 14.204375 -5.59625 14.59625 -6 15 C-6.66 14.67 -7.32 14.34 -8 14 C-7.50628906 13.49210938 -7.01257812 12.98421875 -6.50390625 12.4609375 C-1.46152645 7.09620269 -1.46152645 7.09620269 0 0 Z " fill="#233A6F" transform="translate(1275,584)"/>
<path d="M0 0 C0.66 0.33 1.32 0.66 2 1 C2 1.66 2 2.32 2 3 C0.68 3 -0.64 3 -2 3 C-2 3.66 -2 4.32 -2 5 C-3.98 5.66 -5.96 6.32 -8 7 C-8.33 6.01 -8.66 5.02 -9 4 C-7.54618103 3.30300448 -6.08677047 2.61766134 -4.625 1.9375 C-3.40683594 1.36322266 -3.40683594 1.36322266 -2.1640625 0.77734375 C-1.44992187 0.52082031 -0.73578125 0.26429688 0 0 Z " fill="#274075" transform="translate(910,446)"/>
<path d="M0 0 C0.66 0 1.32 0 2 0 C2.33 1.65 2.66 3.3 3 5 C0.03 5.66 -2.94 6.32 -6 7 C-1.5078125 1.53125 -1.5078125 1.53125 0 0 Z " fill="#D8DEE8" transform="translate(1138,677)"/>
<path d="M0 0 C5.12583611 -0.10251672 9.94997778 -0.03590199 15 1 C15 1.33 15 1.66 15 2 C10.32798795 3.20568053 5.78503708 3.09382426 1 3 C0.67 2.01 0.34 1.02 0 0 Z " fill="#203C71" transform="translate(594,622)"/>
<path d="M0 0 C0.66 0.66 1.32 1.32 2 2 C-1.63 5.3 -5.26 8.6 -9 12 C-9 9 -9 9 -7.03125 6.73828125 C-5.77828125 5.53751953 -5.77828125 5.53751953 -4.5 4.3125 C-3.6646875 3.50425781 -2.829375 2.69601562 -1.96875 1.86328125 C-1.3190625 1.24839844 -0.669375 0.63351562 0 0 Z " fill="#E9EDF3" transform="translate(840,596)"/>
<path d="M0 0 C5.28137429 0.51525603 8.57221156 2.25477117 13 5 C10 6 10 6 6.5 4.75 C3.65354771 3.32677386 1.95639957 2.41672888 0 0 Z " fill="#0C1E52" transform="translate(1145,579)"/>
<path d="M0 0 C0 3.80345877 -1.13786331 4.77701015 -3.5 7.6875 C-4.1496875 8.49574219 -4.799375 9.30398437 -5.46875 10.13671875 C-5.9740625 10.75160156 -6.479375 11.36648437 -7 12 C-7.99 11.34 -8.98 10.68 -10 10 C-6.7 6.7 -3.4 3.4 0 0 Z " fill="#3B4B78" transform="translate(684,149)"/>
<path d="M0 0 C1.4540625 0.0309375 1.4540625 0.0309375 2.9375 0.0625 C1.96183888 1.23209987 0.981875 2.39811177 0 3.5625 C-0.54527344 4.2121875 -1.09054687 4.861875 -1.65234375 5.53125 C-2.11769531 6.0365625 -2.58304688 6.541875 -3.0625 7.0625 C-3.3925 7.0625 -3.7225 7.0625 -4.0625 7.0625 C-4.10504356 5.06295254 -4.10330783 3.06208364 -4.0625 1.0625 C-3.0625 0.0625 -3.0625 0.0625 0 0 Z " fill="#E0E5EC" transform="translate(711.0625,586.9375)"/>
<path d="M0 0 C0.67578125 1.734375 0.67578125 1.734375 1 4 C-0.14453125 6.140625 -0.14453125 6.140625 -1.8125 8.25 C-2.35519531 8.95640625 -2.89789062 9.6628125 -3.45703125 10.390625 C-3.96621094 10.92171875 -4.47539063 11.4528125 -5 12 C-5.66 12 -6.32 12 -7 12 C-6 10 -5 8 -4 6 C-3.34 6 -2.68 6 -2 6 C-1.34 4.02 -0.68 2.04 0 0 Z " fill="#132859" transform="translate(861,256)"/>
<path d="M0 0 C0.66 0.33 1.32 0.66 2 1 C-1.49087093 5.0042343 -3.64951939 6.62671065 -9 7 C-6.25604436 4.05278838 -3.61662784 1.80831392 0 0 Z " fill="#233B70" transform="translate(915,249)"/>
<path d="M0 0 C0.66 0.33 1.32 0.66 2 1 C-0.5550839 3.98093122 -3.38281401 5.52359755 -7 7 C-9.19140625 6.578125 -9.19140625 6.578125 -11 6 C-9.21385682 4.96953278 -7.42089982 3.95086764 -5.625 2.9375 C-4.62726562 2.36902344 -3.62953125 1.80054688 -2.6015625 1.21484375 C-1.74304688 0.81394531 -0.88453125 0.41304687 0 0 Z " fill="#253C6F" transform="translate(940,235)"/>
<path d="M0 0 C4.12751449 0.60698743 7.3321148 2.03810791 11 4 C10.67 4.66 10.34 5.32 10 6 C4.25 4.125 4.25 4.125 2 3 C2 2.34 2 1.68 2 1 C1.34 0.67 0.68 0.34 0 0 Z " fill="#F0F2F6" transform="translate(734,487)"/>
<path d="M0 0 C0.66 0.33 1.32 0.66 2 1 C-1.20760251 4.80635497 -4.40746109 8.54563567 -8 12 C-8 8.03869629 -6.65122875 7.17085599 -4 4.3125 C-3.2575 3.50425781 -2.515 2.69601562 -1.75 1.86328125 C-1.1725 1.24839844 -0.595 0.63351562 0 0 Z " fill="#FDF1E3" transform="translate(998,441)"/>
<path d="M0 0 C0.99 0.66 1.98 1.32 3 2 C0.77631342 4.55723956 -0.7237531 5.30503854 -4 6 C-5.3479743 6.63654342 -6.68596724 7.29605388 -8 8 C-5.58443874 4.80800833 -3.31996462 2.25283313 0 0 Z " fill="#1D3770" transform="translate(958,391)"/>
<path d="M0 0 C0.66 0.33 1.32 0.66 2 1 C1.01 3.97 0.02 6.94 -1 10 C-1.33 10 -1.66 10 -2 10 C-2 8.02 -2 6.04 -2 4 C-2.99 3.67 -3.98 3.34 -5 3 C-2.625 1.4375 -2.625 1.4375 0 0 Z " fill="#FDEBD5" transform="translate(891,785)"/>
<path d="M0 0 C-0.66 0.66 -1.32 1.32 -2 2 C-5.0390625 1.9765625 -5.0390625 1.9765625 -8.625 1.625 C-9.81351563 1.51414062 -11.00203125 1.40328125 -12.2265625 1.2890625 C-13.14179687 1.19367187 -14.05703125 1.09828125 -15 1 C-15 0.67 -15 0.34 -15 0 C-4.44191344 -1.33257403 -4.44191344 -1.33257403 0 0 Z " fill="#21396C" transform="translate(873,677)"/>
<path d="M0 0 C0.66 0.33 1.32 0.66 2 1 C1.4409112 4.24271506 0.5867822 5.93057424 -2 8 C-2.66 8 -3.32 8 -4 8 C-2.87548273 5.0280615 -1.77706209 2.66559313 0 0 Z " fill="#132C63" transform="translate(1068,642)"/>
<path d="M0 0 C1.875 -0.36328125 1.875 -0.36328125 4 -0.3125 C4.70125 -0.30863281 5.4025 -0.30476562 6.125 -0.30078125 C8 0 8 0 10 2 C4.06 2.495 4.06 2.495 -2 3 C-1.34 2.01 -0.68 1.02 0 0 Z " fill="#041C4D" transform="translate(1128,630)"/>
<path d="M0 0 C0.66 0.33 1.32 0.66 2 1 C2 1.99 2 2.98 2 4 C1.01 4 0.02 4 -1 4 C-2.68236471 4.62599617 -4.3523962 5.28752268 -6 6 C-4 4 -2 2 0 0 Z M3 1 C5 2 5 2 5 2 Z " fill="#1F396E" transform="translate(928,405)"/>
<path d="M0 0 C0.66 0.33 1.32 0.66 2 1 C-1.49087093 5.0042343 -3.64951939 6.62671065 -9 7 C-6.25604436 4.05278838 -3.61662784 1.80831392 0 0 Z " fill="#223668" transform="translate(715,399)"/>
<path d="M0 0 C0 0.66 0 1.32 0 2 C-3.63 2.33 -7.26 2.66 -11 3 C-8.89427904 -1.21144191 -4.11694326 -0.07767817 0 0 Z " fill="#1A2F60" transform="translate(467,691)"/>
<path d="M0 0 C0 0.66 0 1.32 0 2 C0.66 2.33 1.32 2.66 2 3 C-6.57142857 2.14285714 -6.57142857 2.14285714 -10 0 C-6.30458414 -0.95024979 -3.69541586 -0.95024979 0 0 Z " fill="#38507F" transform="translate(387,686)"/>
<path d="M0 0 C0.66 0.66 1.32 1.32 2 2 C1.875 3.9375 1.875 3.9375 1 6 C-1.0625 7.75 -1.0625 7.75 -3 9 C-3 5.30581799 -1.71820705 3.22163822 0 0 Z " fill="#1C3770" transform="translate(479,662)"/>
<path d="M0 0 C0.99 0.66 1.98 1.32 3 2 C1.9171875 2.37125 1.9171875 2.37125 0.8125 2.75 C-2.24713266 4.10983674 -4.4673738 5.82917754 -7 8 C-7.66 7.67 -8.32 7.34 -9 7 C-7.87720538 6.01830524 -6.75168527 5.03972702 -5.625 4.0625 C-4.68527344 3.24458984 -4.68527344 3.24458984 -3.7265625 2.41015625 C-2 1 -2 1 0 0 Z " fill="#11255D" transform="translate(1078,634)"/>
<path d="M0 0 C-2 3 -2 3 -5 3.8125 C-5.99 3.874375 -6.98 3.93625 -8 4 C-8.66 3.34 -9.32 2.68 -10 2 C-8.71211992 1.46987262 -7.41953322 0.9511671 -6.125 0.4375 C-5.40570312 0.14746094 -4.68640625 -0.14257812 -3.9453125 -0.44140625 C-2 -1 -2 -1 0 0 Z " fill="#284075" transform="translate(1086,582)"/>
<path d="M0 0 C0.33 0.99 0.66 1.98 1 3 C-2.125 2.47916667 -5.25 1.95833333 -8.375 1.4375 C-9.24125 1.293125 -10.1075 1.14875 -11 1 C-11 0.67 -11 0.34 -11 0 C-7.01803543 -1.05404945 -4.01804691 -0.84098656 0 0 Z " fill="#092A68" transform="translate(763,577)"/>
<path d="M0 0 C-0.8125 2.9375 -0.8125 2.9375 -2 6 C-2.99 6.33 -3.98 6.66 -5 7 C-5.33 5.68 -5.66 4.36 -6 3 C-2.25 0 -2.25 0 0 0 Z " fill="#EDEFF3" transform="translate(929,421)"/>
<path d="M0 0 C-0.375 1.9375 -0.375 1.9375 -1 4 C-1.99 4.495 -1.99 4.495 -3 5 C-5.125 4.0625 -5.125 4.0625 -7 3 C-4.49955934 -0.00052879 -4.2621484 0 0 0 Z " fill="#F5F6F9" transform="translate(940,408)"/>
<path d="M0 0 C0.556875 0.226875 1.11375 0.45375 1.6875 0.6875 C-2.8125 4.6875 -2.8125 4.6875 -7.3125 4.6875 C-7.3125 4.0275 -7.3125 3.3675 -7.3125 2.6875 C-3.15982824 -0.42700382 -3.15982824 -0.42700382 0 0 Z " fill="#14295C" transform="translate(929.3125,242.3125)"/>
<path d="M0 0 C0.66 0.99 1.32 1.98 2 3 C-1.465 4.485 -1.465 4.485 -5 6 C-5.66 5.34 -6.32 4.68 -7 4 C-4.69 2.68 -2.38 1.36 0 0 Z " fill="#E4E8EE" transform="translate(955,225)"/>
<path d="M0 0 C3.96 0 7.92 0 12 0 C12 0.33 12 0.66 12 1 C5.375 3 5.375 3 2 3 C1.34 2.01 0.68 1.02 0 0 Z " fill="#1B3567" transform="translate(1196,531)"/>
<path d="M0 0 C2.31 0.33 4.62 0.66 7 1 C7 1.66 7 2.32 7 3 C5.02 3.99 5.02 3.99 3 5 C1.5 3.625 1.5 3.625 0 2 C0 1.34 0 0.68 0 0 Z " fill="#112759" transform="translate(714,247)"/>
<path d="M0 0 C2.0625 0.4375 2.0625 0.4375 4 1 C3.67 2.32 3.34 3.64 3 5 C3 4.34 3 3.68 3 3 C2.01 3 1.02 3 0 3 C0 4.98 0 6.96 0 9 C-0.33 9 -0.66 9 -1 9 C-1.09765625 2.84765625 -1.09765625 2.84765625 -1 1 C-0.67 0.67 -0.34 0.34 0 0 Z " fill="#7286AF" transform="translate(674,194)"/>
<path d="M0 0 C0.33 0 0.66 0 1 0 C1.3125 2.75 1.3125 2.75 1 6 C-1.5 8.375 -1.5 8.375 -4 10 C-4.66 9.67 -5.32 9.34 -6 9 C-4.73046875 7.53515625 -3.4609375 6.0703125 -2.19140625 4.60546875 C-0.79128769 2.89287029 -0.79128769 2.89287029 0 0 Z " fill="#1B3068" transform="translate(885,662)"/>
<path d="M0 0 C0 0.33 0 0.66 0 1 C-1.41543415 1.19658808 -2.83244031 1.38187546 -4.25 1.5625 C-5.03890625 1.66691406 -5.8278125 1.77132812 -6.640625 1.87890625 C-9.00532874 2.00027349 -10.7511037 1.69633257 -13 1 C-8.23947038 -0.97387813 -5.03511899 -1.0070238 0 0 Z " fill="#E1E6EF" transform="translate(860,590)"/>
<path d="M0 0 C0.66 0.33 1.32 0.66 2 1 C-0.65654657 4.73884332 -2.58110387 6.64978174 -7 8 C-6.02133662 6.85373678 -5.04205413 5.70800212 -4.0625 4.5625 C-3.51722656 3.92441406 -2.97195313 3.28632813 -2.41015625 2.62890625 C-1.63204305 1.73008851 -0.84063472 0.84063472 0 0 Z " fill="#EDF0F6" transform="translate(966,450)"/>
<path d="M0 0 C0.33 1.32 0.66 2.64 1 4 C1.66 4 2.32 4 3 4 C3 4.66 3 5.32 3 6 C1.1875 7.0625 1.1875 7.0625 -1 8 C-1.99 7.67 -2.98 7.34 -4 7 C-3.525625 6.5875 -3.05125 6.175 -2.5625 5.75 C-0.83733482 3.817815 -0.43415125 2.51807725 0 0 Z " fill="#F86D03" transform="translate(894,773)"/>
<path d="M0 0 C0.33 0 0.66 0 1 0 C1.125 2.875 1.125 2.875 1 6 C0.34 6.66 -0.32 7.32 -1 8 C-1.99 7.67 -2.98 7.34 -4 7 C-2.68 4.69 -1.36 2.38 0 0 Z " fill="#192E66" transform="translate(987,694)"/>
<path d="M0 0 C0 3 0 3 -1.1875 5.1875 C-3 7 -3 7 -5.6875 7.25 C-6.450625 7.1675 -7.21375 7.085 -8 7 C-7.236875 6.401875 -6.47375 5.80375 -5.6875 5.1875 C-3.6516425 3.53040668 -1.8021721 1.89702326 0 0 Z " fill="#223869" transform="translate(605,668)"/>
<path d="M0 0 C0 0.99 0 1.98 0 3 C-4.455 3.495 -4.455 3.495 -9 4 C-3.7826087 0 -3.7826087 0 0 0 Z " fill="#22386E" transform="translate(1088,630)"/>
<path d="M0 0 C0.66 0.99 1.32 1.98 2 3 C1.01 3.99 0.02 4.98 -1 6 C-1.99 5.67 -2.98 5.34 -4 5 C-2.68 3.35 -1.36 1.7 0 0 Z " fill="#162C62" transform="translate(1266,599)"/>
<path d="M0 0 C0.33 0 0.66 0 1 0 C1 1.98 1 3.96 1 6 C1.66 6.33 2.32 6.66 3 7 C2.34 8.65 1.68 10.3 1 12 C-1.83022097 8.00439392 -0.76210446 4.57262677 0 0 Z " fill="#294375" transform="translate(1032,587)"/>
<path d="M0 0 C2.97 0.495 2.97 0.495 6 1 C6 2.32 6 3.64 6 5 C4.02 4.01 2.04 3.02 0 2 C0 1.34 0 0.68 0 0 Z " fill="#1F376B" transform="translate(931,579)"/>
<path d="M0 0 C-0.33 0.99 -0.66 1.98 -1 3 C-3.875 3.625 -3.875 3.625 -7 4 C-7.66 3.34 -8.32 2.68 -9 2 C-3.375 0 -3.375 0 0 0 Z " fill="#17316B" transform="translate(734,577)"/>
<path d="M0 0 C-2.91708924 1.98362069 -4.12380904 1.9876191 -7.75 1.625 C-8.8225 1.41875 -9.895 1.2125 -11 1 C-7.2297564 -1.56376565 -4.32597804 -0.83191885 0 0 Z " fill="#193169" transform="translate(574,579)"/>
<path d="M0 0 C0.33 0 0.66 0 1 0 C1 2.97 1 5.94 1 9 C0.67 8.01 0.34 7.02 0 6 C-0.99 6 -1.98 6 -3 6 C-1.125 1.125 -1.125 1.125 0 0 Z " fill="#344B77" transform="translate(373,534)"/>
<path d="M0 0 C0.33 0 0.66 0 1 0 C1 2.31 1 4.62 1 7 C-1.97 7 -4.94 7 -8 7 C-8 6.67 -8 6.34 -8 6 C-6.576875 5.9071875 -6.576875 5.9071875 -5.125 5.8125 C-4.09375 5.544375 -3.0625 5.27625 -2 5 C-0.54708727 2.53744315 -0.54708727 2.53744315 0 0 Z " fill="#041141" transform="translate(865,394)"/>
<path d="M0 0 C0.66 0.33 1.32 0.66 2 1 C0.02 3.31 -1.96 5.62 -4 8 C-4.66 7.34 -5.32 6.68 -6 6 C-4.02 4.02 -2.04 2.04 0 0 Z " fill="#183D7A" transform="translate(866,285)"/>
<path d="M0 0 C2.97 0.99 5.94 1.98 9 3 C9 3.66 9 4.32 9 5 C4.68607774 4.5206753 2.83430453 3.2542015 0 0 Z " fill="#1F3C72" transform="translate(810,271)"/>
<path d="M0 0 C0.99 0.33 1.98 0.66 3 1 C3 1.99 3 2.98 3 4 C3.66 4 4.32 4 5 4 C5.66 5.65 6.32 7.3 7 9 C5.82460004 8.07347299 4.65989423 7.13336613 3.5 6.1875 C2.52546875 5.40439453 2.52546875 5.40439453 1.53125 4.60546875 C0 3 0 3 0 0 Z " fill="#041A4D" transform="translate(727,260)"/>
<path d="M0 0 C1.98362069 2.91708924 1.9876191 4.12380904 1.625 7.75 C1.41875 8.8225 1.2125 9.895 1 11 C-1.78637633 6.8204355 -0.79562512 4.85331323 0 0 Z " fill="#243B6F" transform="translate(627,247)"/>
<path d="M0 0 C0.66 0.99 1.32 1.98 2 3 C1.01 3.33 0.02 3.66 -1 4 C-2.20882096 6.00016466 -2.20882096 6.00016466 -3 8 C-3.66 8 -4.32 8 -5 8 C-3.62845496 5.04590299 -2.01136276 2.55991624 0 0 Z " fill="#FDA153" transform="translate(693,162)"/>
<path d="M0 0 C0.33 0.99 0.66 1.98 1 3 C0.38125 3.4125 -0.2375 3.825 -0.875 4.25 C-3.06768281 6.05573879 -3.92788417 7.4090534 -5 10 C-5.3125 7.8125 -5.3125 7.8125 -5 5 C-2.5 2.1875 -2.5 2.1875 0 0 Z " fill="#FD8A2C" transform="translate(945,810)"/>
<path d="M0 0 C1.10844919 3.32534757 0.84454356 5.62182575 0 9 C-1.65 9 -3.3 9 -5 9 C-4.360625 8.071875 -3.72125 7.14375 -3.0625 6.1875 C-0.91377907 3.15780057 -0.91377907 3.15780057 0 0 Z " fill="#2A4172" transform="translate(673,680)"/>
<path d="M0 0 C3 1 3 1 5 3 C2.36 3.33 -0.28 3.66 -3 4 C-3 3.34 -3 2.68 -3 2 C-2.01 1.34 -1.02 0.68 0 0 Z " fill="#213664" transform="translate(646,686)"/>
<path d="M0 0 C0 0.66 0 1.32 0 2 C-3.465 3.485 -3.465 3.485 -7 5 C-7.33 4.01 -7.66 3.02 -8 2 C-2.25 0 -2.25 0 0 0 Z " fill="#183168" transform="translate(463,678)"/>
<path d="M0 0 C2.31 1.98 4.62 3.96 7 6 C6.34 6.66 5.68 7.32 5 8 C0 2.25 0 2.25 0 0 Z " fill="#0C2560" transform="translate(1308,676)"/>
<path d="M0 0 C0.66 0.33 1.32 0.66 2 1 C1.01 2.485 1.01 2.485 0 4 C0.66 4 1.32 4 2 4 C2.33 5.65 2.66 7.3 3 9 C1.35 7.35 -0.3 5.7 -2 4 C-1.34 2.68 -0.68 1.36 0 0 Z " fill="#0A1E50" transform="translate(1263,661)"/>
<path d="M0 0 C0 0.66 0 1.32 0 2 C-0.66 2 -1.32 2 -2 2 C-2 2.99 -2 3.98 -2 5 C-3.65 4.67 -5.3 4.34 -7 4 C-2.25 0 -2.25 0 0 0 Z " fill="#DFE5ED" transform="translate(1108,638)"/>
<path d="M0 0 C-2.05233685 2.2477975 -3.00667261 3.0022242 -6 4 C-6.66 3.67 -7.32 3.34 -8 3 C-8 2.34 -8 1.68 -8 1 C-5.07175348 0.02391783 -3.04386724 -0.08226668 0 0 Z " fill="#122662" transform="translate(1315,579)"/>
<path d="M0 0 C2.97 0 5.94 0 9 0 C7.68 1.32 6.36 2.64 5 4 C3.35 2.68 1.7 1.36 0 0 Z " fill="#1D346C" transform="translate(975,579)"/>
<path d="M0 0 C0.763125 0.20625 1.52625 0.4125 2.3125 0.625 C2.3125 1.285 2.3125 1.945 2.3125 2.625 C2.9725 2.955 3.6325 3.285 4.3125 3.625 C0.45604879 3.84536864 -2.17973216 3.22855101 -5.6875 1.625 C-2.6875 -0.375 -2.6875 -0.375 0 0 Z " fill="#FD7012" transform="translate(476.6875,525.375)"/>
<path d="M0 0 C3.68754757 0.49831724 5.60490662 1.10067643 8 4 C7.01 4.495 7.01 4.495 6 5 C3.96855359 4.06553465 1.96466413 3.06775224 0 2 C0 1.34 0 0.68 0 0 Z " fill="#2E416F" transform="translate(741,488)"/>
<path d="M0 0 C1.32 0 2.64 0 4 0 C3.1875 1.9375 3.1875 1.9375 2 4 C1.01 4.33 0.02 4.66 -1 5 C-0.67 3.35 -0.34 1.7 0 0 Z " fill="#FD811C" transform="translate(994,440)"/>
<path d="M0 0 C0.66 0.66 1.32 1.32 2 2 C-0.97 4.475 -0.97 4.475 -4 7 C-4.33 6.01 -4.66 5.02 -5 4 C-3.35 2.68 -1.7 1.36 0 0 Z " fill="#052257" transform="translate(955,395)"/>
<path d="M0 0 C6.75 0.75 6.75 0.75 9 3 C7.3125 3.75 7.3125 3.75 5 4 C2.25 2.0625 2.25 2.0625 0 0 Z " fill="#264F8A" transform="translate(816,387)"/>
<path d="M0 0 C3.0916909 2.52956528 3.90931332 5.22454612 5 9 C2 8 2 8 0.8125 6.1875 C0 4 0 4 0 0 Z " fill="#2B4D88" transform="translate(859,221)"/>
<path d="M0 0 C2.475 0.495 2.475 0.495 5 1 C4.67 2.32 4.34 3.64 4 5 C3.01 5 2.02 5 1 5 C0.67 3.35 0.34 1.7 0 0 Z " fill="#041C51" transform="translate(657,182)"/>
<path d="M0 0 C0.33 0 0.66 0 1 0 C1.1875 3.375 1.1875 3.375 1 7 C0.01 7.66 -0.98 8.32 -2 9 C-1.125 1.125 -1.125 1.125 0 0 Z " fill="#FB8119" transform="translate(998,800)"/>
<path d="M0 0 C-0.33 0.99 -0.66 1.98 -1 3 C-3.5625 4.1875 -3.5625 4.1875 -6 5 C-6.66 4.34 -7.32 3.68 -8 3 C-2.25 0 -2.25 0 0 0 Z " fill="#DBE0EA" transform="translate(1130,686)"/>
<path d="M0 0 C-0.66 1.32 -1.32 2.64 -2 4 C-2.99 4 -3.98 4 -5 4 C-5.66 3.34 -6.32 2.68 -7 2 C-4.35261084 0.5393715 -3.10551666 0 0 0 Z " fill="#193166" transform="translate(470,675)"/>
<path d="M0 0 C2.5 2.3125 2.5 2.3125 5 5 C5 5.99 5 6.98 5 8 C2.5 6.25 2.5 6.25 0 4 C0 2.68 0 1.36 0 0 Z " fill="#243568" transform="translate(566,667)"/>
<path d="M0 0 C0.33 0.66 0.66 1.32 1 2 C1.66 2.33 2.32 2.66 3 3 C1.25 7.875 1.25 7.875 -1 9 C-0.67 6.03 -0.34 3.06 0 0 Z " fill="#16336B" transform="translate(366,547)"/>
<path d="M0 0 C1.52299523 2.93720508 2.80100302 5.9168649 4 9 C3.01 9.495 3.01 9.495 2 10 C1.01 7.03 0.02 4.06 -1 1 C-0.67 0.67 -0.34 0.34 0 0 Z " fill="#F4701C" transform="translate(378,546)"/>
<path d="M0 0 C0.99 0.33 1.98 0.66 3 1 C2.6875 2.9375 2.6875 2.9375 2 5 C1.01 5.33 0.02 5.66 -1 6 C-0.67 4.02 -0.34 2.04 0 0 Z " fill="#122C60" transform="translate(369,540)"/>
<path d="M0 0 C0.66 0.33 1.32 0.66 2 1 C2 1.99 2 2.98 2 4 C0.1875 5.0625 0.1875 5.0625 -2 6 C-2.99 5.67 -3.98 5.34 -5 5 C-3.68 4.67 -2.36 4.34 -1 4 C-0.67 2.68 -0.34 1.36 0 0 Z " fill="#071B4F" transform="translate(920,481)"/>
<path d="M0 0 C2.64 0 5.28 0 8 0 C6.8125 1.5 6.8125 1.5 5 3 C2.3125 3.1875 2.3125 3.1875 0 3 C0 2.01 0 1.02 0 0 Z " fill="#06194B" transform="translate(866,441)"/>
<path d="M0 0 C0.99 0.33 1.98 0.66 3 1 C0.63707344 3.52588702 -0.66462511 4.88820837 -4 6 C-2.84826645 3.53199953 -1.95216435 1.95216435 0 0 Z " fill="#414C7B" transform="translate(931,420)"/>
<path d="M0 0 C0 0.99 0 1.98 0 3 C-2.5 4.6875 -2.5 4.6875 -5 6 C-5 5.34 -5 4.68 -5 4 C-5.66 3.67 -6.32 3.34 -7 3 C-4.69 2.01 -2.38 1.02 0 0 Z " fill="#465785" transform="translate(968,222)"/>
<path d="M0 0 C0.33 0.66 0.66 1.32 1 2 C1.66 2.33 2.32 2.66 3 3 C2.01 4.32 1.02 5.64 0 7 C0 6.01 0 5.02 0 4 C-0.99 3.67 -1.98 3.34 -3 3 C-2.01 2.01 -1.02 1.02 0 0 Z " fill="#223465" transform="translate(669,165)"/>
</svg>
